<?xml version="1.0" encoding="utf-8"?>
<!-- Generator: Adobe Illustrator 15.1.0, SVG Export Plug-In . SVG Version: 6.00 Build 0)  -->
<!DOCTYPE svg PUBLIC "-//W3C//DTD SVG 1.1//EN" "http://www.w3.org/Graphics/SVG/1.1/DTD/svg11.dtd">
<svg version="1.1" xmlns="http://www.w3.org/2000/svg" xmlns:xlink="http://www.w3.org/1999/xlink" x="0px" y="0px" width="800px"
	 height="800px" viewBox="0 0 800 800" enable-background="new 0 0 800 800" xml:space="preserve" id="toolboard">
<g id="wrench_15">
	<path d="M250.551,285.869c-0.244-0.101-0.492-0.174-0.741-0.224c1.023-1.509,0.902-3.574-0.406-4.949
		c-0.181-0.19-0.379-0.356-0.585-0.503c1.55-0.963,2.279-2.902,1.644-4.689c-0.087-0.248-0.199-0.48-0.328-0.699
		c1.808-0.25,3.263-1.725,3.411-3.616c0.021-0.261,0.014-0.519-0.016-0.77c1.754,0.505,3.684-0.251,4.59-1.918
		c0.126-0.231,0.226-0.471,0.301-0.713c1.397,1.173,3.467,1.268,4.975,0.113c0.208-0.16,0.395-0.339,0.562-0.528
		c0.798,1.639,2.653,2.565,4.501,2.123c0.255-0.062,0.5-0.147,0.73-0.253c0.061,1.821,1.378,3.419,3.246,3.765
		c0.26,0.047,0.518,0.068,0.772,0.065c-0.686,1.688-0.138,3.683,1.43,4.756c0.217,0.149,0.444,0.271,0.676,0.371
		c-1.316,1.264-1.625,3.311-0.631,4.928c0.137,0.224,0.294,0.428,0.465,0.615c-1.716,0.62-2.832,2.364-2.583,4.246
		c0.034,0.26,0.094,0.51,0.175,0.75c-1.82-0.129-3.55,1.01-4.09,2.83c-0.075,0.252-0.122,0.506-0.146,0.758
		c-1.61-0.857-3.655-0.521-4.888,0.922c-0.171,0.2-0.315,0.413-0.44,0.633c-1.122-1.438-3.129-1.958-4.844-1.142
		c-0.238,0.113-0.458,0.247-0.662,0.398c-0.438-1.768-2.06-3.058-3.959-3.008c-0.263,0.007-0.519,0.041-0.766,0.096
		C253.262,288.431,252.307,286.595,250.551,285.869z M270.826,448.86c3.459-3.652,13.069-13.262,10.187-22.488
		c-5.19-7.303-9.034-10.57-9.034-10.57s-0.769-2.691-1.345-4.997c-0.577-2.307,0-105.134,0-105.134s0.524-2.936,1.128-6.701
		c6.5-3.426,10.934-10.246,10.934-18.104c0-11.297-9.159-20.456-20.456-20.456c-11.298,0-20.457,9.159-20.457,20.456
		c0,8.704,5.439,16.134,13.104,19.089c0.26,1.196,0.42,2.537,0.371,3.985c-0.193,5.574,0,99.946,0,99.946
		s-1.153,10.378-4.037,12.108c-2.882,1.729-6.919,4.612-7.496,11.725c-0.576,7.111,1.923,15.952,3.46,17.105
		c1.538-2.115,4.613-13.455,4.613-13.455s9.417-7.303,19.412,4.037c-3.845,12.108-4.037,13.454-4.037,13.454
		S267.366,452.512,270.826,448.86z"/>
</g>
<g id="wrench_14">
	<path d="M293.347,284.854c-0.234-0.096-0.471-0.167-0.71-0.214c0.98-1.446,0.864-3.424-0.389-4.742
		c-0.174-0.183-0.363-0.341-0.561-0.482c1.485-0.923,2.184-2.781,1.575-4.493c-0.083-0.237-0.19-0.46-0.314-0.669
		c1.732-0.24,3.126-1.652,3.268-3.464c0.02-0.25,0.013-0.497-0.015-0.737c1.681,0.483,3.53-0.241,4.397-1.838
		c0.121-0.222,0.216-0.452,0.289-0.683c1.339,1.124,3.322,1.215,4.767,0.109c0.2-0.153,0.378-0.325,0.539-0.506
		c0.765,1.57,2.542,2.458,4.313,2.034c0.245-0.06,0.479-0.142,0.699-0.243c0.058,1.745,1.32,3.276,3.11,3.607
		c0.249,0.045,0.497,0.065,0.74,0.063c-0.657,1.617-0.132,3.528,1.37,4.557c0.208,0.143,0.425,0.259,0.647,0.355
		c-1.261,1.211-1.557,3.172-0.604,4.722c0.131,0.214,0.281,0.41,0.446,0.589c-1.644,0.594-2.713,2.265-2.476,4.068
		c0.033,0.249,0.09,0.488,0.167,0.718c-1.743-0.124-3.401,0.968-3.918,2.711c-0.072,0.241-0.116,0.485-0.14,0.727
		c-1.543-0.822-3.502-0.499-4.684,0.883c-0.164,0.191-0.302,0.395-0.421,0.606c-1.075-1.377-2.998-1.876-4.642-1.094
		c-0.228,0.108-0.438,0.237-0.634,0.381c-0.42-1.693-1.974-2.93-3.793-2.882c-0.252,0.007-0.497,0.039-0.734,0.092
		C295.944,287.31,295.029,285.55,293.347,284.854z M312.772,441.02c3.314-3.499,12.522-12.706,9.76-21.547
		c-4.973-6.996-8.655-10.127-8.655-10.127s-0.737-2.579-1.289-4.788c-0.553-2.21,0-100.731,0-100.731s0.502-2.813,1.081-6.42
		c6.228-3.283,10.476-9.817,10.476-17.346c0-10.824-8.775-19.599-19.599-19.599c-10.825,0-19.6,8.775-19.6,19.599
		c0,8.34,5.211,15.459,12.555,18.29c0.249,1.146,0.402,2.431,0.355,3.818c-0.185,5.341,0,95.76,0,95.76s-1.105,9.943-3.868,11.601
		c-2.762,1.657-6.629,4.42-7.182,11.234c-0.552,6.813,1.843,15.283,3.315,16.389c1.473-2.026,4.42-12.892,4.42-12.892
		s9.023-6.997,18.599,3.868c-3.684,11.602-3.867,12.891-3.867,12.891S309.458,444.518,312.772,441.02z"/>
</g>
<g id="wrench_13">
	<path d="M334.428,283.84c-0.223-0.092-0.451-0.16-0.679-0.205c0.938-1.382,0.826-3.274-0.372-4.535
		c-0.166-0.174-0.347-0.327-0.537-0.461c1.42-0.882,2.088-2.659,1.506-4.296c-0.08-0.228-0.182-0.44-0.3-0.64
		c1.656-0.229,2.99-1.58,3.125-3.313c0.019-0.239,0.012-0.475-0.015-0.706c1.607,0.462,3.375-0.23,4.206-1.758
		c0.116-0.212,0.207-0.432,0.276-0.653c1.28,1.075,3.176,1.162,4.558,0.104c0.191-0.146,0.362-0.311,0.515-0.484
		c0.731,1.501,2.432,2.354,4.124,1.945c0.234-0.057,0.458-0.135,0.669-0.232c0.055,1.669,1.262,3.133,2.974,3.449
		c0.238,0.043,0.475,0.063,0.707,0.06c-0.628,1.546-0.126,3.374,1.31,4.358c0.199,0.137,0.407,0.248,0.62,0.34
		c-1.206,1.158-1.489,3.034-0.578,4.515c0.125,0.205,0.27,0.393,0.427,0.563c-1.572,0.568-2.595,2.166-2.367,3.89
		c0.031,0.238,0.086,0.467,0.16,0.687c-1.667-0.119-3.253,0.925-3.748,2.592c-0.069,0.231-0.111,0.464-0.134,0.695
		c-1.475-0.786-3.349-0.477-4.479,0.845c-0.157,0.183-0.289,0.378-0.403,0.58c-1.028-1.317-2.867-1.794-4.438-1.046
		c-0.218,0.104-0.419,0.227-0.606,0.365c-0.402-1.62-1.888-2.802-3.628-2.756c-0.241,0.007-0.475,0.038-0.702,0.088
		C336.912,286.188,336.037,284.505,334.428,283.84z M353.005,433.179c3.169-3.347,11.975-12.151,9.333-20.604
		c-4.755-6.691-8.277-9.686-8.277-9.686s-0.704-2.465-1.232-4.578c-0.528-2.113,0-96.328,0-96.328s0.48-2.689,1.034-6.14
		c5.956-3.139,10.019-9.387,10.019-16.587c0-10.351-8.392-18.743-18.743-18.743c-10.352,0-18.743,8.392-18.743,18.743
		c0,7.975,4.984,14.783,12.006,17.49c0.238,1.096,0.385,2.324,0.34,3.651c-0.177,5.107,0,91.574,0,91.574s-1.057,9.508-3.699,11.094
		c-2.641,1.585-6.339,4.226-6.868,10.742c-0.528,6.516,1.762,14.616,3.17,15.673c1.409-1.938,4.227-12.328,4.227-12.328
		s8.628-6.69,17.786,3.699c-3.523,11.094-3.699,12.327-3.699,12.327S349.835,436.524,353.005,433.179z"/>
</g>
<g id="wrench_12">
	<path d="M373.797,282.826c-0.213-0.088-0.43-0.152-0.648-0.195c0.895-1.319,0.789-3.125-0.355-4.328
		c-0.159-0.167-0.332-0.312-0.512-0.439c1.355-0.842,1.993-2.538,1.438-4.1c-0.076-0.217-0.174-0.42-0.287-0.611
		c1.581-0.219,2.854-1.508,2.982-3.162c0.018-0.228,0.012-0.453-0.014-0.673c1.534,0.441,3.221-0.22,4.013-1.678
		c0.11-0.202,0.197-0.412,0.263-0.623c1.222,1.025,3.031,1.108,4.35,0.099c0.183-0.14,0.345-0.296,0.491-0.462
		c0.698,1.433,2.32,2.243,3.936,1.855c0.224-0.054,0.437-0.129,0.638-0.222c0.053,1.593,1.205,2.99,2.838,3.292
		c0.227,0.042,0.453,0.06,0.675,0.057c-0.6,1.476-0.121,3.22,1.25,4.159c0.189,0.13,0.388,0.237,0.591,0.325
		c-1.151,1.104-1.421,2.895-0.551,4.309c0.119,0.195,0.257,0.374,0.407,0.537c-1.5,0.542-2.476,2.067-2.259,3.712
		c0.03,0.227,0.083,0.446,0.153,0.655c-1.591-0.113-3.104,0.883-3.576,2.474c-0.065,0.22-0.106,0.443-0.127,0.663
		c-1.408-0.75-3.196-0.455-4.274,0.806c-0.149,0.174-0.276,0.36-0.385,0.553c-0.98-1.257-2.735-1.712-4.235-0.998
		c-0.208,0.099-0.4,0.216-0.579,0.348c-0.383-1.545-1.801-2.673-3.462-2.63c-0.23,0.006-0.454,0.036-0.67,0.084
		C376.168,285.066,375.333,283.46,373.797,282.826z M391.525,425.338c3.024-3.193,11.427-11.596,8.907-19.663
		c-4.538-6.385-7.898-9.242-7.898-9.242s-0.672-2.353-1.177-4.369c-0.504-2.017,0-91.924,0-91.924s0.458-2.567,0.987-5.859
		c5.683-2.996,9.56-8.958,9.56-15.829c0-9.877-8.008-17.886-17.886-17.886c-9.878,0-17.886,8.008-17.886,17.886
		c0,7.611,4.756,14.107,11.457,16.69c0.228,1.046,0.367,2.218,0.324,3.484c-0.168,4.874,0,87.388,0,87.388
		s-1.008,9.074-3.529,10.587c-2.521,1.512-6.05,4.033-6.554,10.251c-0.504,6.218,1.682,13.947,3.025,14.956
		c1.345-1.85,4.033-11.765,4.033-11.765s8.234-6.385,16.973,3.53c-3.361,10.587-3.529,11.764-3.529,11.764
		S388.5,428.53,391.525,425.338z"/>
</g>
<g id="wrench_11">
	<path d="M411.453,281.812c-0.203-0.084-0.41-0.146-0.617-0.187c0.852-1.256,0.751-2.975-0.338-4.12
		c-0.151-0.159-0.316-0.297-0.488-0.419c1.29-0.802,1.897-2.416,1.369-3.903c-0.073-0.207-0.166-0.4-0.273-0.582
		c1.505-0.208,2.717-1.436,2.84-3.01c0.018-0.217,0.012-0.432-0.013-0.641c1.46,0.42,3.066-0.209,3.82-1.597
		c0.105-0.193,0.188-0.393,0.251-0.594c1.163,0.977,2.886,1.056,4.142,0.094c0.174-0.133,0.328-0.282,0.468-0.44
		c0.664,1.365,2.208,2.136,3.747,1.767c0.212-0.052,0.416-0.123,0.607-0.211c0.051,1.516,1.147,2.847,2.702,3.134
		c0.216,0.039,0.432,0.056,0.643,0.054c-0.571,1.405-0.114,3.066,1.19,3.959c0.181,0.124,0.369,0.225,0.563,0.309
		c-1.096,1.052-1.35,2.754-0.524,4.102c0.113,0.186,0.244,0.356,0.387,0.512c-1.428,0.517-2.356,1.968-2.15,3.534
		c0.028,0.216,0.078,0.424,0.146,0.624c-1.515-0.107-2.955,0.841-3.405,2.356c-0.062,0.209-0.101,0.421-0.121,0.631
		c-1.34-0.713-3.043-0.433-4.069,0.768c-0.143,0.166-0.263,0.344-0.366,0.527c-0.934-1.197-2.604-1.63-4.032-0.95
		c-0.198,0.094-0.381,0.206-0.551,0.331c-0.365-1.472-1.715-2.545-3.297-2.504c-0.219,0.006-0.432,0.034-0.638,0.08
		C413.71,283.944,412.915,282.416,411.453,281.812z M428.331,417.497c2.879-3.041,10.88-11.04,8.48-18.721
		c-4.32-6.079-7.521-8.799-7.521-8.799s-0.641-2.241-1.12-4.16c-0.48-1.92,0-87.521,0-87.521s0.437-2.444,0.939-5.578
		c5.411-2.853,9.103-8.529,9.103-15.071c0-9.404-7.625-17.029-17.029-17.029c-9.405,0-17.029,7.625-17.029,17.029
		c0,7.246,4.528,13.431,10.908,15.891c0.216,0.996,0.35,2.112,0.309,3.317c-0.161,4.641,0,83.202,0,83.202s-0.96,8.64-3.36,10.08
		c-2.4,1.44-5.76,3.839-6.24,9.76c-0.48,5.92,1.601,13.28,2.88,14.24c1.28-1.761,3.841-11.201,3.841-11.201s7.84-6.079,16.159,3.361
		c-3.2,10.08-3.36,11.2-3.36,11.2S425.451,420.536,428.331,417.497z"/>
</g>
<g id="wrench_10">
	<path d="M447.395,280.797c-0.192-0.08-0.389-0.138-0.587-0.177c0.81-1.193,0.714-2.825-0.32-3.913
		c-0.144-0.151-0.3-0.282-0.463-0.398c1.225-0.762,1.802-2.294,1.3-3.707c-0.069-0.196-0.157-0.38-0.26-0.552
		c1.43-0.198,2.581-1.364,2.697-2.859c0.016-0.206,0.011-0.41-0.013-0.608c1.387,0.399,2.913-0.199,3.629-1.517
		c0.1-0.183,0.178-0.373,0.238-0.564c1.104,0.927,2.74,1.002,3.933,0.09c0.165-0.126,0.312-0.268,0.444-0.418
		c0.631,1.296,2.098,2.032,3.559,1.678c0.201-0.049,0.395-0.117,0.577-0.201c0.048,1.44,1.089,2.704,2.565,2.977
		c0.206,0.038,0.41,0.054,0.61,0.052c-0.542,1.334-0.108,2.912,1.131,3.76c0.171,0.118,0.351,0.214,0.534,0.293
		c-1.041,0.999-1.281,2.615-0.498,3.896c0.107,0.176,0.231,0.338,0.367,0.486c-1.356,0.49-2.238,1.869-2.042,3.356
		c0.026,0.206,0.074,0.403,0.138,0.593c-1.438-0.103-2.807,0.799-3.233,2.237c-0.059,0.199-0.096,0.4-0.115,0.6
		c-1.272-0.678-2.89-0.412-3.864,0.729c-0.136,0.158-0.249,0.326-0.348,0.5c-0.887-1.137-2.474-1.548-3.83-0.902
		c-0.188,0.089-0.361,0.195-0.522,0.314c-0.347-1.397-1.629-2.417-3.131-2.378c-0.208,0.006-0.41,0.032-0.605,0.076
		C449.537,282.822,448.782,281.371,447.395,280.797z M463.423,409.656c2.734-2.888,10.333-10.485,8.054-17.779
		c-4.103-5.773-7.142-8.357-7.142-8.357s-0.608-2.128-1.063-3.951c-0.456-1.823,0-83.118,0-83.118s0.414-2.321,0.892-5.297
		c5.139-2.709,8.645-8.101,8.645-14.313c0-8.931-7.241-16.172-16.172-16.172c-8.933,0-16.173,7.241-16.173,16.172
		c0,6.882,4.301,12.756,10.359,15.092c0.205,0.946,0.332,2.005,0.293,3.15c-0.152,4.407,0,79.016,0,79.016s-0.912,8.205-3.191,9.573
		c-2.279,1.367-5.47,3.646-5.926,9.269c-0.456,5.622,1.521,12.611,2.735,13.523c1.216-1.672,3.646-10.637,3.646-10.637
		s7.445-5.773,15.347,3.191c-3.039,9.573-3.191,10.637-3.191,10.637S460.688,412.543,463.423,409.656z"/>
</g>
<g id="wrench_9">
	<path d="M481.623,279.783c-0.182-0.076-0.368-0.131-0.555-0.168c0.766-1.129,0.675-2.675-0.304-3.705
		c-0.136-0.143-0.284-0.267-0.438-0.377c1.16-0.721,1.706-2.173,1.23-3.51c-0.065-0.186-0.148-0.36-0.245-0.523
		c1.354-0.188,2.443-1.291,2.554-2.707c0.016-0.195,0.01-0.388-0.012-0.577c1.313,0.378,2.758-0.188,3.437-1.436
		c0.095-0.173,0.169-0.353,0.226-0.534c1.046,0.878,2.596,0.95,3.724,0.085c0.157-0.12,0.296-0.254,0.421-0.396
		c0.598,1.227,1.987,1.924,3.37,1.589c0.191-0.046,0.374-0.11,0.547-0.19c0.045,1.364,1.031,2.56,2.431,2.819
		c0.194,0.035,0.388,0.051,0.577,0.049c-0.513,1.264-0.103,2.757,1.071,3.561c0.162,0.112,0.332,0.203,0.506,0.278
		c-0.985,0.946-1.217,2.479-0.473,3.689c0.103,0.167,0.221,0.321,0.349,0.46c-1.284,0.464-2.12,1.77-1.934,3.178
		c0.025,0.195,0.069,0.382,0.131,0.562c-1.363-0.097-2.658,0.756-3.063,2.119c-0.057,0.188-0.091,0.379-0.109,0.567
		c-1.205-0.642-2.736-0.39-3.66,0.69c-0.128,0.149-0.235,0.309-0.329,0.474c-0.84-1.077-2.343-1.466-3.627-0.854
		c-0.178,0.084-0.343,0.185-0.495,0.298c-0.328-1.324-1.543-2.29-2.965-2.252c-0.197,0.005-0.388,0.031-0.574,0.072
		C483.653,281.701,482.938,280.326,481.623,279.783z M496.803,401.815c2.59-2.735,9.786-9.93,7.627-16.837
		c-3.885-5.468-6.763-7.914-6.763-7.914s-0.576-2.015-1.008-3.742s0-78.714,0-78.714s0.393-2.198,0.845-5.017
		c4.867-2.565,8.187-7.671,8.187-13.554c0-8.458-6.857-15.315-15.315-15.315c-8.459,0-15.316,6.857-15.316,15.315
		c0,6.517,4.073,12.08,9.811,14.292c0.195,0.896,0.314,1.899,0.278,2.983c-0.145,4.173,0,74.83,0,74.83s-0.864,7.771-3.022,9.066
		c-2.158,1.295-5.181,3.453-5.612,8.778c-0.432,5.324,1.439,11.943,2.591,12.807c1.15-1.583,3.453-10.074,3.453-10.074
		s7.051-5.468,14.534,3.022c-2.879,9.066-3.022,10.074-3.022,10.074S494.213,404.549,496.803,401.815z"/>
</g>
<g id="wrench_8">
	<path d="M514.138,278.768c-0.172-0.071-0.348-0.124-0.524-0.158c0.724-1.066,0.638-2.526-0.286-3.498
		c-0.129-0.135-0.269-0.252-0.414-0.356c1.095-0.681,1.61-2.051,1.162-3.314c-0.063-0.175-0.141-0.34-0.232-0.494
		c1.278-0.177,2.311-1.219,2.412-2.556c0.014-0.185,0.009-0.366-0.012-0.544c1.24,0.356,2.604-0.178,3.244-1.356
		c0.089-0.164,0.159-0.333,0.213-0.504c0.987,0.829,2.45,0.896,3.516,0.081c0.148-0.113,0.279-0.24,0.397-0.374
		c0.564,1.158,1.875,1.813,3.182,1.5c0.181-0.044,0.354-0.104,0.516-0.179c0.043,1.288,0.975,2.417,2.295,2.661
		c0.184,0.034,0.366,0.048,0.546,0.046c-0.485,1.193-0.096,2.6,1.011,3.362c0.152,0.105,0.313,0.191,0.477,0.262
		c-0.93,0.893-1.148,2.34-0.445,3.483c0.097,0.158,0.208,0.302,0.329,0.434c-1.213,0.438-2.001,1.671-1.826,3.001
		c0.024,0.184,0.066,0.36,0.124,0.53c-1.286-0.091-2.51,0.714-2.892,2c-0.053,0.178-0.085,0.358-0.103,0.536
		c-1.138-0.606-2.582-0.366-3.455,0.652c-0.121,0.141-0.223,0.292-0.311,0.447c-0.793-1.016-2.212-1.384-3.425-0.807
		c-0.168,0.08-0.323,0.174-0.467,0.281c-0.311-1.249-1.457-2.161-2.8-2.126c-0.186,0.005-0.366,0.029-0.541,0.068
		C516.054,280.579,515.379,279.281,514.138,278.768z M528.468,393.974c2.445-2.582,9.238-9.374,7.201-15.896
		c-3.668-5.162-6.385-7.471-6.385-7.471s-0.544-1.902-0.952-3.532c-0.407-1.63,0-74.312,0-74.312s0.371-2.075,0.799-4.736
		c4.594-2.422,7.728-7.242,7.728-12.796c0-7.985-6.474-14.458-14.459-14.458s-14.459,6.474-14.459,14.458
		c0,6.152,3.846,11.404,9.262,13.493c0.184,0.846,0.297,1.793,0.263,2.816c-0.137,3.94,0,70.645,0,70.645s-0.815,7.335-2.854,8.558
		s-4.891,3.26-5.298,8.288c-0.408,5.026,1.358,11.275,2.445,12.09c1.087-1.495,3.261-9.51,3.261-9.51s6.656-5.162,13.721,2.854
		c-2.718,8.559-2.854,9.51-2.854,9.51S526.023,396.555,528.468,393.974z"/>
</g>
<g id="wrench_7">
	<path d="M544.938,277.753c-0.162-0.067-0.327-0.116-0.494-0.148c0.681-1.003,0.601-2.376-0.27-3.291
		c-0.12-0.127-0.252-0.237-0.389-0.334c1.03-0.641,1.512-1.929,1.093-3.118c-0.058-0.165-0.132-0.319-0.218-0.464
		c1.202-0.167,2.173-1.146,2.269-2.404c0.013-0.174,0.009-0.345-0.012-0.512c1.167,0.335,2.45-0.167,3.053-1.276
		c0.084-0.154,0.149-0.313,0.2-0.474c0.929,0.78,2.306,0.843,3.308,0.076c0.139-0.106,0.263-0.226,0.374-0.352
		c0.53,1.09,1.764,1.706,2.993,1.411c0.17-0.041,0.332-0.098,0.485-0.168c0.04,1.211,0.916,2.274,2.158,2.503
		c0.173,0.032,0.345,0.045,0.514,0.043c-0.456,1.123-0.092,2.449,0.95,3.163c0.144,0.099,0.295,0.18,0.449,0.247
		c-0.875,0.84-1.08,2.201-0.419,3.277c0.091,0.148,0.195,0.284,0.31,0.408c-1.142,0.413-1.883,1.572-1.718,2.823
		c0.022,0.173,0.063,0.339,0.116,0.499c-1.21-0.086-2.361,0.672-2.72,1.881c-0.05,0.167-0.081,0.337-0.098,0.504
		c-1.07-0.57-2.43-0.346-3.25,0.613c-0.113,0.132-0.209,0.274-0.292,0.42c-0.746-0.956-2.08-1.302-3.222-0.759
		c-0.158,0.075-0.304,0.164-0.439,0.264c-0.292-1.175-1.37-2.033-2.633-2c-0.175,0.004-0.345,0.027-0.51,0.063
		C546.74,279.457,546.105,278.236,544.938,277.753z M558.419,386.133c2.301-2.429,8.691-8.818,6.774-14.954
		c-3.451-4.855-6.007-7.028-6.007-7.028s-0.512-1.79-0.895-3.323c-0.384-1.534,0-69.909,0-69.909s0.349-1.952,0.751-4.455
		c4.321-2.278,7.27-6.813,7.27-12.038c0-7.512-6.09-13.602-13.602-13.602c-7.513,0-13.603,6.09-13.603,13.602
		c0,5.788,3.617,10.729,8.713,12.693c0.173,0.796,0.279,1.687,0.247,2.65c-0.129,3.707,0,66.458,0,66.458s-0.768,6.9-2.685,8.051
		s-4.601,3.067-4.984,7.796c-0.384,4.729,1.278,10.607,2.301,11.375c1.022-1.407,3.067-8.947,3.067-8.947s6.262-4.855,12.907,2.685
		c-2.556,8.051-2.684,8.946-2.684,8.946S556.119,388.561,558.419,386.133z"/>
</g>
<g id="wrench_6">
	<path d="M574.026,276.739c-0.151-0.063-0.307-0.109-0.462-0.14c0.638-0.94,0.563-2.227-0.253-3.083
		c-0.112-0.119-0.236-0.222-0.364-0.313c0.965-0.6,1.42-1.808,1.024-2.921c-0.055-0.155-0.124-0.299-0.205-0.436
		c1.127-0.156,2.034-1.074,2.126-2.253c0.013-0.163,0.008-0.323-0.011-0.479c1.094,0.314,2.296-0.157,2.86-1.195
		c0.079-0.145,0.141-0.294,0.188-0.444c0.871,0.731,2.16,0.79,3.1,0.071c0.13-0.1,0.246-0.211,0.35-0.329
		c0.498,1.021,1.653,1.598,2.805,1.322c0.159-0.039,0.312-0.092,0.455-0.158c0.038,1.135,0.858,2.133,2.022,2.346
		c0.162,0.03,0.323,0.042,0.481,0.041c-0.428,1.052-0.086,2.294,0.891,2.964c0.135,0.093,0.276,0.168,0.421,0.231
		c-0.82,0.787-1.013,2.063-0.393,3.07c0.085,0.139,0.183,0.267,0.29,0.383c-1.069,0.387-1.761,1.473-1.609,2.645
		c0.021,0.162,0.058,0.318,0.108,0.467c-1.134-0.081-2.212,0.629-2.549,1.763c-0.046,0.157-0.075,0.315-0.091,0.472
		c-1.003-0.534-2.274-0.321-3.045,0.575c-0.107,0.125-0.196,0.257-0.274,0.394c-0.698-0.896-1.949-1.22-3.019-0.711
		c-0.147,0.07-0.285,0.154-0.411,0.248c-0.273-1.101-1.284-1.905-2.468-1.874c-0.164,0.004-0.323,0.025-0.478,0.06
		C575.716,278.335,575.121,277.191,574.026,276.739z M586.658,378.292c2.155-2.276,8.145-8.263,6.348-14.012
		c-3.233-4.55-5.628-6.586-5.628-6.586s-0.479-1.677-0.839-3.113c-0.359-1.438,0-65.505,0-65.505s0.327-1.829,0.704-4.175
		c4.05-2.135,6.812-6.384,6.812-11.28c0-7.039-5.706-12.745-12.745-12.745s-12.746,5.707-12.746,12.745
		c0,5.423,3.391,10.053,8.164,11.894c0.162,0.746,0.262,1.581,0.232,2.483c-0.121,3.473,0,62.272,0,62.272s-0.72,6.466-2.516,7.544
		c-1.797,1.078-4.312,2.874-4.67,7.306c-0.36,4.431,1.197,9.939,2.155,10.658c0.958-1.318,2.874-8.384,2.874-8.384
		s5.867-4.55,12.095,2.516c-2.396,7.544-2.516,8.383-2.516,8.383S584.504,380.567,586.658,378.292z"/>
</g>
<g id="wrench_5">
	<path d="M601.4,275.725c-0.142-0.059-0.286-0.101-0.432-0.13c0.596-0.877,0.525-2.077-0.235-2.876
		c-0.105-0.111-0.221-0.208-0.34-0.292c0.9-0.56,1.324-1.687,0.955-2.725c-0.051-0.144-0.115-0.279-0.19-0.406
		c1.051-0.146,1.901-1.002,1.983-2.102c0.012-0.152,0.007-0.301-0.011-0.447c1.021,0.293,2.142-0.146,2.668-1.115
		c0.073-0.135,0.131-0.274,0.175-0.415c0.813,0.682,2.016,0.737,2.892,0.066c0.121-0.093,0.229-0.197,0.326-0.307
		c0.464,0.952,1.542,1.491,2.616,1.233c0.148-0.036,0.291-0.086,0.424-0.147c0.036,1.059,0.802,1.987,1.887,2.188
		c0.151,0.028,0.302,0.04,0.449,0.038c-0.398,0.981-0.079,2.138,0.831,2.765c0.125,0.086,0.257,0.157,0.392,0.215
		c-0.765,0.734-0.939,1.921-0.365,2.864c0.079,0.129,0.17,0.249,0.271,0.357c-0.998,0.36-1.646,1.374-1.502,2.467
		c0.02,0.151,0.055,0.296,0.102,0.436c-1.058-0.076-2.063,0.587-2.377,1.644c-0.043,0.146-0.07,0.294-0.085,0.441
		c-0.936-0.499-2.124-0.303-2.841,0.536c-0.1,0.116-0.183,0.239-0.255,0.367c-0.652-0.835-1.818-1.138-2.815-0.663
		c-0.139,0.065-0.267,0.144-0.385,0.231c-0.255-1.027-1.197-1.777-2.302-1.748c-0.152,0.004-0.301,0.023-0.445,0.056
		C602.976,277.213,602.421,276.146,601.4,275.725z M613.184,370.452c2.01-2.123,7.596-7.708,5.921-13.07
		c-3.017-4.244-5.25-6.143-5.25-6.143s-0.448-1.564-0.783-2.904c-0.335-1.341,0-61.102,0-61.102s0.305-1.706,0.657-3.894
		c3.777-1.991,6.354-5.955,6.354-10.521c0-6.565-5.324-11.889-11.89-11.889s-11.889,5.323-11.889,11.889
		c0,5.059,3.162,9.377,7.615,11.094c0.151,0.696,0.244,1.475,0.216,2.316c-0.112,3.239,0,58.086,0,58.086s-0.67,6.031-2.346,7.037
		s-4.021,2.681-4.356,6.814c-0.336,4.133,1.117,9.271,2.011,9.941c0.894-1.229,2.681-7.82,2.681-7.82s5.474-4.244,11.281,2.347
		c-2.233,7.037-2.346,7.819-2.346,7.819S611.173,372.573,613.184,370.452z"/>
</g>
<g id="wrench_4">
	<path d="M627.062,274.71c-0.132-0.055-0.266-0.094-0.4-0.121c0.552-0.813,0.487-1.927-0.219-2.668
		c-0.098-0.103-0.204-0.193-0.315-0.272c0.835-0.52,1.227-1.564,0.886-2.528c-0.047-0.134-0.106-0.259-0.177-0.377
		c0.976-0.135,1.761-0.93,1.841-1.95c0.011-0.141,0.007-0.28-0.01-0.416c0.947,0.272,1.99-0.134,2.477-1.034
		c0.067-0.125,0.121-0.254,0.161-0.385c0.754,0.633,1.87,0.685,2.684,0.062c0.112-0.086,0.212-0.183,0.303-0.285
		c0.431,0.884,1.432,1.386,2.428,1.145c0.138-0.033,0.27-0.08,0.394-0.137c0.033,0.982,0.743,1.846,1.75,2.03
		c0.141,0.026,0.28,0.037,0.417,0.035c-0.37,0.91-0.074,1.986,0.771,2.565c0.116,0.08,0.238,0.146,0.363,0.2
		c-0.71,0.682-0.871,1.782-0.339,2.658c0.073,0.12,0.157,0.231,0.25,0.332c-0.925,0.334-1.522,1.274-1.393,2.289
		c0.018,0.141,0.05,0.275,0.094,0.405c-0.981-0.07-1.919,0.543-2.206,1.526c-0.04,0.136-0.064,0.273-0.078,0.409
		c-0.868-0.462-1.97-0.279-2.636,0.498c-0.093,0.108-0.17,0.223-0.237,0.341c-0.604-0.775-1.687-1.054-2.612-0.615
		c-0.129,0.061-0.247,0.133-0.357,0.214c-0.236-0.953-1.11-1.649-2.136-1.622c-0.142,0.003-0.279,0.022-0.413,0.052
		C628.523,276.092,628.009,275.102,627.062,274.71z M637.995,362.61c1.865-1.969,7.049-7.152,5.494-12.127
		c-2.799-3.938-4.871-5.7-4.871-5.7s-0.416-1.452-0.727-2.695c-0.311-1.244,0-56.699,0-56.699s0.282-1.583,0.609-3.613
		c3.505-1.848,5.896-5.525,5.896-9.763c0-6.092-4.94-11.032-11.032-11.032c-6.093,0-11.032,4.939-11.032,11.032
		c0,4.694,2.934,8.701,7.066,10.294c0.14,0.645,0.227,1.368,0.2,2.149c-0.104,3.006,0,53.9,0,53.9s-0.622,5.597-2.177,6.53
		c-1.556,0.933-3.731,2.487-4.043,6.323c-0.311,3.835,1.037,8.603,1.866,9.225c0.829-1.141,2.487-7.256,2.487-7.256
		s5.079-3.938,10.469,2.177c-2.073,6.53-2.177,7.256-2.177,7.256S636.129,364.58,637.995,362.61z"/>
</g>
<g id="wrench_3">
	<path d="M651.01,273.696c-0.121-0.05-0.246-0.087-0.37-0.111c0.51-0.75,0.449-1.777-0.201-2.461
		c-0.09-0.095-0.188-0.178-0.291-0.25c0.771-0.479,1.133-1.443,0.817-2.333c-0.044-0.123-0.099-0.239-0.163-0.348
		c0.899-0.125,1.624-0.858,1.697-1.798c0.01-0.13,0.007-0.258-0.009-0.383c0.873,0.251,1.833-0.125,2.284-0.954
		c0.063-0.116,0.111-0.235,0.149-0.355c0.694,0.583,1.725,0.631,2.474,0.057c0.104-0.08,0.196-0.169,0.28-0.263
		c0.396,0.815,1.32,1.278,2.239,1.056c0.126-0.03,0.248-0.073,0.362-0.126c0.03,0.906,0.686,1.701,1.615,1.873
		c0.129,0.023,0.258,0.034,0.384,0.032c-0.341,0.84-0.068,1.832,0.711,2.366c0.107,0.074,0.221,0.134,0.336,0.185
		c-0.654,0.628-0.807,1.645-0.313,2.451c0.067,0.111,0.146,0.212,0.231,0.305c-0.854,0.309-1.406,1.176-1.284,2.112
		c0.017,0.129,0.046,0.253,0.087,0.373c-0.905-0.064-1.767,0.503-2.035,1.408c-0.037,0.125-0.061,0.252-0.073,0.377
		c-0.8-0.426-1.813-0.256-2.431,0.459c-0.086,0.099-0.156,0.205-0.219,0.314c-0.558-0.715-1.554-0.971-2.409-0.567
		c-0.119,0.056-0.228,0.123-0.329,0.197c-0.219-0.879-1.025-1.521-1.971-1.496c-0.13,0.003-0.257,0.02-0.381,0.047
		C652.357,274.97,651.883,274.057,651.01,273.696z M661.094,354.77c1.72-1.816,6.502-6.597,5.067-11.186
		c-2.581-3.632-4.493-5.257-4.493-5.257s-0.383-1.339-0.67-2.486c-0.286-1.147,0-52.295,0-52.295s0.261-1.46,0.563-3.333
		c3.232-1.705,5.438-5.097,5.438-9.005c0-5.619-4.557-10.175-10.176-10.175s-10.175,4.556-10.175,10.175
		c0,4.33,2.706,8.025,6.518,9.495c0.129,0.595,0.209,1.262,0.185,1.982c-0.096,2.773,0,49.715,0,49.715s-0.574,5.162-2.008,6.022
		c-1.435,0.861-3.441,2.294-3.729,5.832c-0.287,3.537,0.956,7.935,1.721,8.509c0.765-1.052,2.295-6.693,2.295-6.693
		s4.684-3.632,9.655,2.008c-1.912,6.023-2.009,6.692-2.009,6.692S659.373,356.586,661.094,354.77z"/>
</g>
<g id="wrench_2">
	<path d="M673.243,272.682c-0.11-0.046-0.225-0.08-0.338-0.103c0.466-0.687,0.411-1.627-0.185-2.254
		c-0.083-0.087-0.173-0.163-0.267-0.229c0.705-0.439,1.034-1.32,0.748-2.136c-0.04-0.113-0.09-0.219-0.149-0.318
		c0.824-0.114,1.489-0.786,1.556-1.647c0.009-0.119,0.005-0.236-0.009-0.351c0.8,0.23,1.682-0.113,2.092-0.874
		c0.057-0.106,0.103-0.215,0.137-0.325c0.637,0.534,1.578,0.577,2.266,0.052c0.096-0.073,0.18-0.155,0.256-0.241
		c0.364,0.747,1.209,1.168,2.051,0.967c0.116-0.028,0.229-0.067,0.333-0.115c0.027,0.83,0.628,1.558,1.479,1.715
		c0.118,0.021,0.236,0.031,0.352,0.03c-0.313,0.769-0.063,1.678,0.651,2.167c0.099,0.068,0.201,0.123,0.307,0.169
		c-0.599,0.575-0.736,1.506-0.286,2.245c0.062,0.102,0.134,0.195,0.212,0.28c-0.781,0.283-1.289,1.077-1.177,1.934
		c0.016,0.119,0.042,0.232,0.08,0.342c-0.829-0.059-1.62,0.459-1.864,1.289c-0.033,0.115-0.055,0.231-0.066,0.345
		c-0.732-0.39-1.662-0.234-2.226,0.42c-0.079,0.091-0.144,0.188-0.2,0.288c-0.511-0.655-1.426-0.892-2.207-0.52
		c-0.108,0.051-0.209,0.112-0.302,0.181c-0.199-0.805-0.938-1.393-1.804-1.37c-0.12,0.003-0.236,0.019-0.35,0.043
		C674.479,273.848,674.043,273.015,673.243,272.682z M682.479,346.929c1.575-1.664,5.954-6.041,4.642-10.244
		c-2.364-3.326-4.115-4.814-4.115-4.814s-0.352-1.227-0.613-2.277c-0.263-1.051,0-47.892,0-47.892s0.238-1.337,0.515-3.052
		c2.961-1.561,4.98-4.667,4.98-8.247c0-5.146-4.173-9.318-9.318-9.318c-5.146,0-9.319,4.172-9.319,9.318
		c0,3.965,2.479,7.349,5.969,8.695c0.118,0.545,0.191,1.156,0.17,1.815c-0.088,2.539,0,45.528,0,45.528s-0.525,4.728-1.839,5.516
		c-1.314,0.788-3.152,2.101-3.415,5.341c-0.263,3.239,0.876,7.267,1.576,7.792c0.7-0.963,2.102-6.129,2.102-6.129
		s4.29-3.327,8.842,1.839c-1.751,5.516-1.839,6.129-1.839,6.129S680.902,348.592,682.479,346.929z"/>
</g>
<g id="wrench_1">
	<path d="M693.764,271.667c-0.101-0.042-0.204-0.072-0.308-0.093c0.424-0.624,0.374-1.478-0.167-2.047
		c-0.075-0.079-0.157-0.148-0.242-0.208c0.641-0.398,0.942-1.2,0.68-1.939c-0.036-0.103-0.082-0.199-0.136-0.289
		c0.748-0.104,1.351-0.713,1.412-1.496c0.008-0.108,0.005-0.214-0.008-0.318c0.727,0.208,1.524-0.104,1.899-0.793
		c0.052-0.096,0.093-0.195,0.124-0.295c0.578,0.485,1.435,0.525,2.058,0.047c0.087-0.066,0.163-0.141,0.232-0.219
		c0.33,0.678,1.098,1.061,1.862,0.878c0.105-0.026,0.207-0.061,0.302-0.105c0.025,0.754,0.57,1.415,1.343,1.558
		c0.107,0.02,0.215,0.028,0.319,0.027c-0.283,0.698-0.057,1.523,0.592,1.968c0.089,0.062,0.183,0.112,0.278,0.153
		c-0.544,0.522-0.672,1.37-0.26,2.039c0.056,0.092,0.121,0.177,0.192,0.254c-0.71,0.257-1.171,0.978-1.068,1.756
		c0.014,0.108,0.038,0.211,0.072,0.311c-0.753-0.054-1.469,0.418-1.692,1.17c-0.03,0.104-0.05,0.209-0.061,0.313
		c-0.665-0.354-1.512-0.215-2.021,0.382c-0.071,0.082-0.13,0.17-0.182,0.261c-0.464-0.594-1.294-0.81-2.004-0.472
		c-0.099,0.046-0.189,0.102-0.273,0.164c-0.182-0.731-0.853-1.265-1.639-1.244c-0.108,0.002-0.214,0.017-0.317,0.04
		C694.885,272.727,694.49,271.967,693.764,271.667z M702.149,339.088c1.431-1.511,5.407-5.486,4.215-9.302
		c-2.146-3.021-3.736-4.372-3.736-4.372s-0.319-1.114-0.558-2.067c-0.238-0.954,0-43.489,0-43.489s0.217-1.214,0.468-2.771
		c2.688-1.417,4.522-4.238,4.522-7.489c0-4.673-3.789-8.461-8.462-8.461s-8.462,3.789-8.462,8.461c0,3.601,2.251,6.674,5.42,7.896
		c0.107,0.495,0.174,1.05,0.154,1.648c-0.08,2.306,0,41.343,0,41.343s-0.478,4.293-1.67,5.008c-1.193,0.716-2.862,1.908-3.101,4.85
		c-0.239,2.941,0.795,6.599,1.431,7.076c0.636-0.875,1.908-5.566,1.908-5.566s3.896-3.021,8.029,1.67
		c-1.59,5.009-1.67,5.565-1.67,5.565S700.719,340.598,702.149,339.088z"/>
</g>
<g id="needle_nosed">
	<path stroke="#000000" stroke-miterlimit="10" d="M150.5,343.5l2.5,11.75c24.75,40.5,15.25,89.125,15.25,89.125
		s-3.75,19.688,1.75,25.438s9.5-2.781,9.5-2.781s-2-3.016,1.75-28.766c10-48-15.917-85.925-15.917-85.925
		c-3.5-4.334-1.333-28.504-2.833-28.504s-2-1.835-2-1.835c5-6.167,0-9.501,0-9.501c2,1,2.167-0.834,2-2.501c0-4,0-20,0-20L152,227.5
		h-3.978L137.5,290c0,0,0,16,0,20c0,1.667,0.022,3.5,2.022,2.5c0,0-4.989,3.333,0.011,9.5c0,0-0.495,1.833-1.995,1.833
		s0.669,24.166-2.831,28.5c0,0-25.915,37.917-15.915,85.917c3.75,25.75,1.751,28.75,1.751,28.75s4,8.5,9.5,2.75s1.75-25.5,1.75-25.5
		s-9.5-48.5,15.25-89l2.489-11.75H150.5z"/>
</g>
</svg>
