<?xml version="1.0" encoding="utf-8"?>
<!-- Generator: Adobe Illustrator 15.1.0, SVG Export Plug-In . SVG Version: 6.00 Build 0)  -->
<!DOCTYPE svg PUBLIC "-//W3C//DTD SVG 1.1//EN" "http://www.w3.org/Graphics/SVG/1.1/DTD/svg11.dtd">
<svg version="1.1" xmlns="http://www.w3.org/2000/svg" xmlns:xlink="http://www.w3.org/1999/xlink" x="0px" y="0px"
	 width="855.882px" height="567.646px" viewBox="0 0 855.882 567.646" enable-background="new 0 0 855.882 567.646"
	 xml:space="preserve">
<g id="wrench_15">
	<path d="M198.075,308.255c-0.348-0.144-0.703-0.249-1.059-0.319c1.461-2.156,1.289-5.106-0.581-7.071
		c-0.259-0.272-0.542-0.509-0.836-0.719c2.214-1.376,3.256-4.146,2.349-6.699c-0.125-0.354-0.284-0.687-0.468-0.998
		c2.583-0.358,4.662-2.464,4.873-5.166c0.029-0.374,0.02-0.741-0.022-1.101c2.506,0.722,5.264-0.359,6.558-2.741
		c0.181-0.331,0.323-0.673,0.431-1.019c1.996,1.676,4.953,1.812,7.107,0.162c0.298-0.228,0.564-0.484,0.803-0.755
		c1.141,2.342,3.79,3.666,6.431,3.033c0.365-0.088,0.714-0.21,1.043-0.362c0.086,2.602,1.969,4.885,4.638,5.378
		c0.371,0.068,0.74,0.097,1.103,0.094c-0.98,2.412-0.197,5.262,2.043,6.795c0.31,0.213,0.634,0.387,0.966,0.53
		c-1.881,1.806-2.322,4.73-0.901,7.041c0.195,0.32,0.42,0.612,0.665,0.878c-2.452,0.886-4.045,3.378-3.691,6.066
		c0.049,0.371,0.135,0.729,0.25,1.071c-2.6-0.185-5.073,1.443-5.843,4.043c-0.107,0.36-0.174,0.723-0.208,1.083
		c-2.301-1.225-5.222-0.744-6.984,1.317c-0.244,0.286-0.451,0.589-0.628,0.905c-1.603-2.054-4.471-2.798-6.921-1.631
		c-0.34,0.161-0.653,0.353-0.945,0.568c-0.626-2.525-2.943-4.369-5.657-4.298c-0.376,0.01-0.741,0.059-1.094,0.137
		C201.948,311.916,200.583,309.292,198.075,308.255z M227.042,541.13c4.942-5.218,18.673-18.947,14.554-32.13
		c-7.416-10.434-12.907-15.103-12.907-15.103s-1.098-3.846-1.922-7.14c-0.824-3.296,0-150.211,0-150.211s0.749-4.194,1.612-9.574
		c9.287-4.896,15.622-14.639,15.622-25.866c0-16.14-13.086-29.227-29.227-29.227c-16.143,0-29.228,13.086-29.228,29.227
		c0,12.436,7.771,23.052,18.722,27.273c0.372,1.709,0.6,3.624,0.529,5.693c-0.275,7.964,0,142.798,0,142.798
		s-1.647,14.828-5.767,17.3c-4.118,2.472-9.885,6.59-10.71,16.752c-0.823,10.16,2.748,22.792,4.944,24.439
		c2.197-3.021,6.591-19.224,6.591-19.224s13.455-10.434,27.735,5.768c-5.493,17.3-5.767,19.223-5.767,19.223
		S222.1,546.347,227.042,541.13z"/>
</g>
<g id="wrench_14">
	<path d="M259.219,306.806c-0.334-0.137-0.673-0.238-1.015-0.305c1.4-2.066,1.235-4.893-0.556-6.776
		c-0.249-0.261-0.519-0.487-0.802-0.688c2.122-1.318,3.12-3.973,2.25-6.419c-0.119-0.339-0.272-0.657-0.448-0.956
		c2.474-0.343,4.467-2.361,4.669-4.95c0.028-0.357,0.019-0.709-0.021-1.053c2.401,0.691,5.043-0.345,6.283-2.626
		c0.173-0.317,0.309-0.646,0.413-0.976c1.913,1.606,4.746,1.736,6.81,0.156c0.286-0.219,0.54-0.464,0.77-0.724
		c1.093,2.244,3.631,3.512,6.162,2.906c0.35-0.085,0.684-0.203,0.999-0.348c0.083,2.494,1.886,4.681,4.443,5.154
		c0.355,0.065,0.709,0.093,1.057,0.089c-0.939,2.311-0.188,5.041,1.958,6.511c0.297,0.204,0.607,0.371,0.925,0.508
		c-1.802,1.73-2.224,4.532-0.863,6.746c0.187,0.306,0.402,0.586,0.637,0.842c-2.349,0.849-3.876,3.236-3.537,5.812
		c0.047,0.355,0.129,0.698,0.239,1.026c-2.49-0.177-4.859,1.383-5.598,3.874c-0.103,0.344-0.167,0.692-0.2,1.038
		c-2.205-1.174-5.003-0.713-6.692,1.262c-0.233,0.273-0.432,0.564-0.602,0.867c-1.535-1.968-4.283-2.681-6.631-1.563
		c-0.325,0.154-0.626,0.338-0.906,0.545c-0.6-2.419-2.82-4.186-5.42-4.118c-0.361,0.01-0.71,0.056-1.049,0.132
		C262.93,310.313,261.623,307.799,259.219,306.806z M286.974,529.928c4.735-5,17.891-18.154,13.945-30.785
		c-7.104-9.996-12.366-14.469-12.366-14.469s-1.053-3.686-1.842-6.842c-0.79-3.157,0-143.919,0-143.919s0.718-4.019,1.544-9.173
		c8.898-4.69,14.968-14.026,14.968-24.783c0-15.464-12.538-28.002-28.002-28.002c-15.466,0-28.003,12.538-28.003,28.002
		c0,11.916,7.446,22.087,17.938,26.131c0.356,1.638,0.575,3.473,0.507,5.455c-0.265,7.63,0,136.818,0,136.818
		s-1.579,14.207-5.526,16.574c-3.946,2.368-9.471,6.315-10.262,16.051c-0.789,9.735,2.633,21.836,4.737,23.416
		c2.105-2.896,6.315-18.419,6.315-18.419s12.892-9.997,26.573,5.526c-5.263,16.576-5.525,18.418-5.525,18.418
		S282.238,534.926,286.974,529.928z"/>
</g>
<g id="wrench_13">
	<path d="M317.915,305.357c-0.319-0.132-0.644-0.228-0.971-0.293c1.34-1.975,1.181-4.678-0.531-6.479
		c-0.237-0.249-0.496-0.467-0.767-0.659c2.029-1.261,2.983-3.799,2.152-6.138c-0.114-0.325-0.26-0.629-0.429-0.915
		c2.367-0.328,4.272-2.258,4.466-4.733c0.026-0.342,0.018-0.679-0.021-1.008c2.296,0.661,4.823-0.329,6.009-2.511
		c0.166-0.303,0.295-0.617,0.394-0.934c1.829,1.536,4.538,1.66,6.512,0.148c0.273-0.209,0.517-0.443,0.736-0.691
		c1.045,2.146,3.474,3.364,5.892,2.779c0.334-0.081,0.654-0.193,0.956-0.332c0.079,2.385,1.804,4.476,4.25,4.928
		c0.34,0.062,0.678,0.089,1.01,0.086c-0.898,2.209-0.18,4.82,1.872,6.226c0.284,0.195,0.581,0.354,0.885,0.486
		c-1.723,1.655-2.127,4.334-0.826,6.451c0.18,0.293,0.385,0.561,0.61,0.805c-2.246,0.812-3.707,3.095-3.382,5.558
		c0.045,0.34,0.123,0.667,0.229,0.981c-2.382-0.169-4.647,1.322-5.354,3.704c-0.098,0.33-0.159,0.663-0.191,0.993
		c-2.107-1.123-4.784-0.682-6.399,1.207c-0.224,0.262-0.413,0.54-0.575,0.829c-1.469-1.882-4.097-2.563-6.342-1.494
		c-0.312,0.148-0.599,0.324-0.866,0.521c-0.574-2.314-2.697-4.003-5.184-3.938c-0.345,0.01-0.679,0.054-1.003,0.126
		C321.464,308.71,320.214,306.306,317.915,305.357z M344.457,518.725c4.527-4.781,17.109-17.361,13.334-29.438
		c-6.793-9.561-11.826-13.838-11.826-13.838s-1.006-3.522-1.761-6.541c-0.755-3.02,0-137.629,0-137.629s0.687-3.843,1.477-8.772
		c8.509-4.485,14.314-13.412,14.314-23.698c0-14.789-11.99-26.779-26.779-26.779c-14.791,0-26.779,11.99-26.779,26.779
		c0,11.395,7.121,21.121,17.153,24.988c0.34,1.566,0.55,3.321,0.486,5.217c-0.253,7.297,0,130.836,0,130.836
		s-1.511,13.586-5.285,15.852c-3.773,2.265-9.058,6.037-9.813,15.349c-0.754,9.309,2.518,20.883,4.53,22.393
		c2.013-2.77,6.039-17.614,6.039-17.614s12.328-9.559,25.412,5.285c-5.034,15.851-5.285,17.612-5.285,17.612
		S339.927,523.505,344.457,518.725z"/>
</g>
<g id="wrench_12">
	<path d="M374.164,303.907c-0.304-0.125-0.614-0.218-0.926-0.279c1.278-1.885,1.126-4.465-0.507-6.183
		c-0.227-0.238-0.474-0.445-0.732-0.628c1.936-1.203,2.847-3.625,2.054-5.858c-0.109-0.31-0.248-0.6-0.409-0.873
		c2.258-0.313,4.077-2.154,4.261-4.517c0.026-0.326,0.017-0.647-0.02-0.961c2.191,0.63,4.603-0.315,5.734-2.397
		c0.158-0.289,0.282-0.589,0.376-0.891c1.745,1.465,4.331,1.584,6.214,0.142c0.261-0.199,0.493-0.423,0.702-0.66
		c0.998,2.047,3.314,3.204,5.623,2.651c0.319-0.077,0.625-0.184,0.912-0.316c0.076,2.275,1.722,4.272,4.056,4.703
		c0.324,0.06,0.647,0.085,0.965,0.082c-0.857,2.109-0.172,4.601,1.786,5.942c0.271,0.187,0.554,0.338,0.844,0.464
		c-1.644,1.578-2.03,4.136-0.788,6.156c0.17,0.279,0.367,0.534,0.581,0.767c-2.143,0.775-3.537,2.954-3.227,5.304
		c0.042,0.324,0.118,0.637,0.218,0.936c-2.273-0.162-4.435,1.262-5.109,3.535c-0.094,0.314-0.151,0.633-0.182,0.947
		c-2.011-1.071-4.566-0.65-6.106,1.152c-0.213,0.249-0.394,0.515-0.55,0.791c-1.401-1.796-3.908-2.447-6.051-1.426
		c-0.297,0.141-0.572,0.309-0.827,0.498c-0.548-2.208-2.574-3.819-4.946-3.758c-0.329,0.009-0.648,0.051-0.957,0.12
		C377.551,307.108,376.358,304.813,374.164,303.907z M399.492,507.522c4.321-4.563,16.327-16.567,12.726-28.094
		c-6.483-9.122-11.285-13.205-11.285-13.205s-0.96-3.361-1.681-6.242c-0.72-2.882,0-131.337,0-131.337s0.655-3.667,1.411-8.371
		c8.12-4.28,13.658-12.799,13.658-22.616c0-14.113-11.442-25.555-25.554-25.555c-14.114,0-25.555,11.442-25.555,25.555
		c0,10.874,6.796,20.156,16.369,23.846c0.325,1.495,0.525,3.169,0.463,4.979c-0.241,6.964,0,124.856,0,124.856
		s-1.44,12.965-5.042,15.127c-3.601,2.16-8.644,5.762-9.364,14.646c-0.72,8.884,2.402,19.927,4.322,21.368
		c1.921-2.643,5.763-16.809,5.763-16.809s11.765-9.122,24.25,5.044c-4.803,15.126-5.042,16.808-5.042,16.808
		S395.17,512.083,399.492,507.522z"/>
</g>
<g id="wrench_11">
	<path d="M427.965,302.458c-0.291-0.12-0.586-0.208-0.882-0.266c1.217-1.794,1.073-4.25-0.483-5.886
		c-0.216-0.227-0.452-0.424-0.698-0.599c1.843-1.146,2.711-3.452,1.956-5.577c-0.104-0.295-0.237-0.571-0.391-0.832
		c2.15-0.298,3.882-2.051,4.058-4.3c0.025-0.311,0.017-0.617-0.018-0.916c2.086,0.601,4.381-0.299,5.458-2.281
		c0.15-0.276,0.269-0.561,0.358-0.848c1.662,1.395,4.123,1.508,5.917,0.134c0.249-0.189,0.469-0.403,0.669-0.628
		c0.948,1.95,3.154,3.051,5.354,2.525c0.303-0.074,0.594-0.175,0.867-0.302c0.073,2.167,1.64,4.067,3.861,4.479
		c0.309,0.056,0.616,0.08,0.918,0.077c-0.816,2.008-0.163,4.38,1.701,5.657c0.258,0.177,0.527,0.322,0.804,0.441
		c-1.565,1.503-1.929,3.935-0.75,5.861c0.162,0.265,0.35,0.509,0.553,0.731c-2.04,0.738-3.366,2.812-3.072,5.049
		c0.04,0.309,0.111,0.606,0.208,0.892c-2.164-0.153-4.223,1.202-4.865,3.366c-0.088,0.299-0.144,0.602-0.173,0.901
		c-1.915-1.02-4.348-0.619-5.814,1.097c-0.204,0.237-0.375,0.491-0.523,0.753c-1.334-1.711-3.721-2.33-5.761-1.358
		c-0.283,0.134-0.544,0.294-0.787,0.473c-0.521-2.103-2.45-3.637-4.71-3.578c-0.313,0.008-0.617,0.049-0.911,0.114
		C431.189,305.505,430.053,303.321,427.965,302.458z M452.079,496.319c4.113-4.345,15.545-15.773,12.116-26.748
		C458.023,460.887,453.45,457,453.45,457s-0.915-3.201-1.6-5.944c-0.687-2.743,0-125.046,0-125.046s0.623-3.492,1.342-7.97
		c7.731-4.076,13.006-12.187,13.006-21.533c0-13.437-10.895-24.33-24.331-24.33c-13.438,0-24.331,10.894-24.331,24.33
		c0,10.353,6.47,19.19,15.585,22.705c0.309,1.422,0.5,3.017,0.441,4.739c-0.23,6.63,0,118.875,0,118.875s-1.372,12.344-4.801,14.402
		c-3.429,2.057-8.229,5.486-8.916,13.944c-0.687,8.459,2.287,18.974,4.115,20.346c1.829-2.516,5.487-16.004,5.487-16.004
		s11.201-8.686,23.087,4.803c-4.572,14.401-4.801,16.002-4.801,16.002S447.965,500.662,452.079,496.319z"/>
</g>
<g id="wrench_10">
	<path d="M479.316,301.008c-0.275-0.114-0.556-0.197-0.839-0.252c1.156-1.704,1.02-4.037-0.458-5.59
		c-0.205-0.216-0.428-0.403-0.661-0.569c1.75-1.088,2.574-3.278,1.857-5.296c-0.1-0.28-0.225-0.543-0.371-0.789
		c2.043-0.283,3.688-1.948,3.854-4.084c0.022-0.294,0.016-0.585-0.018-0.87c1.98,0.57,4.161-0.284,5.185-2.167
		c0.142-0.262,0.254-0.533,0.34-0.806c1.578,1.325,3.915,1.432,5.619,0.128c0.235-0.181,0.445-0.383,0.635-0.597
		c0.901,1.852,2.997,2.904,5.084,2.398c0.288-0.07,0.564-0.167,0.825-0.287c0.068,2.058,1.556,3.863,3.665,4.253
		c0.295,0.054,0.586,0.077,0.872,0.074c-0.774,1.907-0.154,4.16,1.616,5.373c0.244,0.168,0.501,0.306,0.763,0.419
		c-1.487,1.428-1.83,3.737-0.711,5.567c0.153,0.251,0.33,0.483,0.524,0.694c-1.938,0.701-3.198,2.67-2.918,4.795
		c0.038,0.294,0.106,0.576,0.197,0.847c-2.056-0.146-4.011,1.141-4.62,3.196c-0.084,0.285-0.137,0.572-0.165,0.857
		c-1.817-0.969-4.128-0.588-5.521,1.042c-0.194,0.225-0.355,0.466-0.497,0.715c-1.267-1.624-3.534-2.212-5.472-1.289
		c-0.269,0.127-0.517,0.279-0.747,0.449c-0.495-1.997-2.327-3.454-4.473-3.398c-0.298,0.008-0.586,0.046-0.865,0.108
		C482.377,303.902,481.299,301.828,479.316,301.008z M502.217,485.117c3.906-4.126,14.764-14.979,11.507-25.402
		c-5.861-8.249-10.204-11.94-10.204-11.94s-0.869-3.039-1.52-5.645c-0.651-2.604,0-118.754,0-118.754s0.592-3.316,1.274-7.569
		c7.342-3.871,12.351-11.574,12.351-20.45c0-12.76-10.346-23.105-23.105-23.105c-12.763,0-23.107,10.345-23.107,23.105
		c0,9.833,6.146,18.225,14.802,21.563c0.293,1.351,0.474,2.865,0.418,4.501c-0.218,6.296,0,112.895,0,112.895
		s-1.303,11.723-4.56,13.677c-3.257,1.953-7.814,5.209-8.467,13.243c-0.651,8.033,2.173,18.019,3.908,19.322
		c1.737-2.389,5.21-15.197,5.21-15.197s10.638-8.249,21.927,4.56c-4.342,13.676-4.56,15.197-4.56,15.197
		S498.31,489.241,502.217,485.117z"/>
</g>
<g id="wrench_9">
	<path d="M528.221,299.56c-0.26-0.108-0.526-0.187-0.793-0.24c1.094-1.613,0.964-3.822-0.434-5.293
		c-0.194-0.204-0.406-0.382-0.627-0.539c1.658-1.03,2.438-3.104,1.758-5.015c-0.093-0.266-0.212-0.514-0.35-0.748
		c1.934-0.268,3.491-1.845,3.648-3.868c0.022-0.279,0.014-0.555-0.017-0.824c1.877,0.54,3.94-0.269,4.91-2.052
		c0.135-0.248,0.241-0.504,0.322-0.763c1.494,1.255,3.708,1.356,5.32,0.121c0.225-0.171,0.422-0.363,0.601-0.565
		c0.854,1.753,2.84,2.75,4.815,2.271c0.273-0.066,0.534-0.158,0.781-0.271c0.064,1.948,1.474,3.658,3.473,4.027
		c0.278,0.05,0.555,0.072,0.825,0.07c-0.732,1.805-0.146,3.939,1.53,5.088c0.231,0.16,0.475,0.29,0.723,0.397
		c-1.408,1.352-1.738,3.542-0.675,5.271c0.146,0.239,0.315,0.458,0.498,0.658c-1.835,0.663-3.029,2.529-2.763,4.541
		c0.036,0.278,0.099,0.546,0.187,0.803c-1.947-0.138-3.798,1.081-4.375,3.027c-0.081,0.269-0.13,0.542-0.156,0.811
		c-1.722-0.917-3.91-0.557-5.229,0.986c-0.184,0.214-0.337,0.442-0.471,0.678c-1.2-1.539-3.347-2.095-5.182-1.221
		c-0.254,0.121-0.49,0.265-0.708,0.426c-0.469-1.891-2.204-3.271-4.235-3.218c-0.282,0.008-0.555,0.044-0.82,0.103
		C531.121,302.3,530.1,300.335,528.221,299.56z M549.908,473.914c3.7-3.908,13.982-14.187,10.897-24.056
		c-5.551-7.813-9.662-11.307-9.662-11.307s-0.823-2.88-1.44-5.347c-0.616-2.467,0-112.464,0-112.464s0.562-3.14,1.207-7.168
		c6.954-3.665,11.696-10.959,11.696-19.366c0-12.084-9.797-21.882-21.882-21.882c-12.086,0-21.883,9.798-21.883,21.882
		c0,9.312,5.819,17.259,14.017,20.42c0.279,1.279,0.449,2.714,0.397,4.263c-0.206,5.962,0,106.914,0,106.914
		s-1.234,11.102-4.318,12.953c-3.084,1.85-7.402,4.934-8.019,12.542c-0.617,7.606,2.057,17.063,3.701,18.297
		c1.645-2.263,4.935-14.394,4.935-14.394s10.073-7.811,20.766,4.32c-4.113,12.952-4.318,14.392-4.318,14.392
		S546.208,477.819,549.908,473.914z"/>
</g>
<g id="wrench_8">
	<path d="M574.676,298.11c-0.245-0.102-0.497-0.177-0.749-0.226c1.033-1.523,0.911-3.609-0.409-4.998
		c-0.184-0.192-0.384-0.36-0.592-0.508c1.564-0.973,2.301-2.931,1.661-4.735c-0.09-0.25-0.201-0.486-0.332-0.706
		c1.826-0.252,3.301-1.741,3.446-3.651c0.02-0.264,0.012-0.523-0.018-0.777c1.772,0.509,3.72-0.254,4.636-1.937
		c0.127-0.235,0.228-0.477,0.304-0.721c1.411,1.185,3.501,1.281,5.023,0.115c0.212-0.162,0.398-0.342,0.567-0.534
		c0.807,1.655,2.68,2.59,4.546,2.143c0.259-0.063,0.505-0.148,0.737-0.256c0.061,1.84,1.392,3.453,3.278,3.802
		c0.263,0.048,0.523,0.069,0.78,0.066c-0.693,1.704-0.137,3.715,1.444,4.803c0.217,0.15,0.446,0.273,0.681,0.375
		c-1.328,1.276-1.641,3.344-0.637,4.977c0.139,0.225,0.298,0.432,0.471,0.62c-1.733,0.626-2.859,2.388-2.609,4.288
		c0.035,0.262,0.095,0.515,0.177,0.757c-1.837-0.13-3.585,1.021-4.131,2.857c-0.075,0.255-0.121,0.512-0.146,0.766
		c-1.626-0.866-3.689-0.523-4.937,0.931c-0.173,0.202-0.318,0.417-0.443,0.639c-1.134-1.452-3.161-1.978-4.894-1.152
		c-0.24,0.114-0.462,0.249-0.667,0.401c-0.443-1.784-2.082-3.087-4-3.037c-0.266,0.007-0.523,0.041-0.773,0.097
		C577.413,300.697,576.449,298.842,574.676,298.11z M595.15,462.712c3.493-3.689,13.199-13.395,10.288-22.712
		c-5.24-7.374-9.122-10.674-9.122-10.674s-0.777-2.719-1.36-5.047c-0.582-2.329,0-106.173,0-106.173s0.53-2.964,1.142-6.766
		c6.563-3.46,11.04-10.348,11.04-18.283c0-11.408-9.249-20.657-20.658-20.657s-20.658,9.249-20.658,20.657
		c0,8.791,5.495,16.294,13.232,19.278c0.263,1.208,0.425,2.562,0.376,4.024c-0.195,5.629,0,100.935,0,100.935
		s-1.165,10.479-4.077,12.227s-6.987,4.659-7.569,11.842c-0.583,7.18,1.94,16.109,3.494,17.273
		c1.553-2.136,4.658-13.587,4.658-13.587s9.511-7.376,19.604,4.077c-3.883,12.228-4.077,13.587-4.077,13.587
		S591.657,466.398,595.15,462.712z"/>
</g>
<g id="wrench_7">
	<path d="M618.683,296.66c-0.231-0.096-0.468-0.166-0.706-0.212c0.973-1.434,0.858-3.396-0.385-4.702
		c-0.172-0.182-0.36-0.339-0.556-0.478c1.472-0.915,2.16-2.755,1.562-4.455c-0.082-0.235-0.188-0.456-0.312-0.664
		c1.718-0.238,3.104-1.638,3.241-3.435c0.019-0.249,0.013-0.493-0.017-0.731c1.667,0.479,3.501-0.239,4.361-1.823
		c0.12-0.22,0.214-0.448,0.286-0.677c1.327,1.114,3.295,1.205,4.726,0.108c0.198-0.152,0.376-0.323,0.535-0.502
		c0.758,1.557,2.52,2.437,4.276,2.016c0.242-0.059,0.475-0.14,0.693-0.241c0.058,1.731,1.309,3.249,3.083,3.577
		c0.247,0.045,0.493,0.065,0.734,0.062c-0.651,1.604-0.131,3.499,1.357,4.52c0.205,0.141,0.422,0.257,0.642,0.352
		c-1.25,1.2-1.543,3.145-0.599,4.682c0.13,0.212,0.279,0.406,0.442,0.583c-1.631,0.59-2.689,2.247-2.454,4.034
		c0.032,0.247,0.09,0.484,0.166,0.712c-1.729-0.124-3.373,0.96-3.886,2.688c-0.071,0.239-0.115,0.481-0.14,0.721
		c-1.529-0.815-3.471-0.495-4.644,0.876c-0.161,0.189-0.298,0.391-0.417,0.601c-1.065-1.365-2.972-1.861-4.603-1.084
		c-0.227,0.107-0.435,0.234-0.628,0.377c-0.417-1.678-1.958-2.904-3.762-2.856c-0.25,0.006-0.492,0.038-0.729,0.09
		C621.257,299.094,620.35,297.35,618.683,296.66z M637.943,451.508c3.287-3.469,12.417-12.6,9.679-21.364
		c-4.931-6.938-8.582-10.042-8.582-10.042s-0.731-2.558-1.278-4.748c-0.549-2.19,0-99.882,0-99.882s0.498-2.788,1.073-6.365
		c6.174-3.255,10.386-9.734,10.386-17.199c0-10.732-8.701-19.434-19.434-19.434c-10.733,0-19.435,8.702-19.435,19.434
		c0,8.269,5.168,15.328,12.449,18.135c0.247,1.137,0.398,2.411,0.353,3.786c-0.184,5.296,0,94.954,0,94.954
		s-1.097,9.858-3.835,11.502c-2.739,1.644-6.573,4.382-7.122,11.139c-0.548,6.756,1.826,15.155,3.287,16.251
		c1.461-2.01,4.383-12.783,4.383-12.783s8.946-6.938,18.441,3.837c-3.651,11.502-3.834,12.78-3.834,12.78
		S634.657,454.977,637.943,451.508z"/>
</g>
<g id="wrench_6">
	<path d="M660.242,295.211c-0.217-0.09-0.438-0.155-0.66-0.199c0.911-1.343,0.804-3.181-0.361-4.406
		c-0.16-0.169-0.338-0.317-0.521-0.448c1.379-0.857,2.029-2.583,1.464-4.174c-0.078-0.221-0.178-0.428-0.293-0.623
		c1.61-0.223,2.906-1.535,3.037-3.219c0.019-0.232,0.012-0.461-0.015-0.685c1.563,0.449,3.28-0.224,4.086-1.708
		c0.113-0.207,0.201-0.42,0.269-0.635c1.244,1.044,3.086,1.129,4.429,0.101c0.186-0.142,0.352-0.302,0.499-0.47
		c0.712,1.459,2.362,2.284,4.007,1.889c0.228-0.055,0.445-0.131,0.65-0.226c0.055,1.622,1.227,3.048,2.89,3.353
		c0.231,0.042,0.462,0.061,0.688,0.058c-0.611,1.503-0.123,3.278,1.272,4.235c0.192,0.132,0.395,0.241,0.601,0.33
		c-1.172,1.125-1.446,2.947-0.561,4.387c0.121,0.199,0.261,0.381,0.414,0.547c-1.527,0.552-2.516,2.104-2.299,3.779
		c0.029,0.232,0.082,0.454,0.154,0.668c-1.619-0.115-3.16,0.899-3.642,2.519c-0.065,0.224-0.107,0.451-0.13,0.674
		c-1.433-0.763-3.249-0.459-4.35,0.821c-0.154,0.178-0.281,0.367-0.393,0.563c-0.997-1.279-2.785-1.743-4.313-1.016
		c-0.211,0.101-0.407,0.22-0.588,0.354c-0.391-1.573-1.834-2.721-3.525-2.677c-0.234,0.006-0.462,0.036-0.683,0.085
		C662.656,297.492,661.807,295.856,660.242,295.211z M678.29,440.307c3.079-3.252,11.637-11.807,9.069-20.02
		c-4.62-6.502-8.041-9.409-8.041-9.409s-0.686-2.397-1.198-4.448c-0.514-2.054,0-93.592,0-93.592s0.467-2.612,1.006-5.964
		c5.786-3.05,9.731-9.121,9.731-16.116c0-10.057-8.152-18.21-18.209-18.21c-10.058,0-18.212,8.153-18.212,18.21
		c0,7.749,4.845,14.363,11.665,16.993c0.231,1.065,0.374,2.259,0.332,3.548c-0.173,4.962,0,88.972,0,88.972
		s-1.028,9.238-3.595,10.778s-6.16,4.106-6.672,10.438c-0.515,6.331,1.711,14.2,3.079,15.227c1.369-1.883,4.106-11.977,4.106-11.977
		s8.383-6.502,17.28,3.594c-3.422,10.779-3.594,11.978-3.594,11.978S675.212,443.557,678.29,440.307z"/>
</g>
<g id="wrench_5">
	<path d="M699.353,293.761c-0.202-0.083-0.408-0.144-0.616-0.186c0.851-1.253,0.751-2.967-0.337-4.109
		c-0.15-0.159-0.314-0.297-0.485-0.418c1.287-0.8,1.893-2.41,1.365-3.894c-0.073-0.206-0.165-0.399-0.272-0.58
		c1.501-0.208,2.717-1.432,2.834-3.003c0.017-0.217,0.01-0.43-0.016-0.639c1.458,0.418,3.06-0.209,3.813-1.594
		c0.104-0.192,0.187-0.391,0.249-0.592c1.161,0.974,2.88,1.054,4.132,0.095c0.173-0.133,0.326-0.282,0.466-0.439
		c0.663,1.36,2.203,2.13,3.738,1.762c0.212-0.052,0.415-0.123,0.605-0.211c0.052,1.513,1.146,2.839,2.695,3.126
		c0.216,0.04,0.431,0.057,0.642,0.054c-0.569,1.401-0.112,3.055,1.188,3.95c0.179,0.123,0.367,0.225,0.56,0.308
		c-1.093,1.049-1.342,2.745-0.521,4.092c0.112,0.185,0.242,0.355,0.386,0.51c-1.426,0.515-2.351,1.963-2.146,3.525
		c0.028,0.216,0.078,0.423,0.146,0.623c-1.512-0.108-2.948,0.838-3.396,2.349c-0.062,0.209-0.101,0.421-0.121,0.63
		c-1.337-0.712-3.035-0.432-4.059,0.766c-0.143,0.166-0.262,0.342-0.364,0.525c-0.933-1.193-2.599-1.626-4.022-0.948
		c-0.198,0.094-0.382,0.205-0.55,0.33c-0.364-1.467-1.711-2.539-3.289-2.497c-0.218,0.005-0.43,0.033-0.636,0.08
		C701.604,295.889,700.811,294.363,699.353,293.761z M716.188,429.103c2.871-3.033,10.853-11.012,8.459-18.673
		c-4.31-6.063-7.501-8.777-7.501-8.777s-0.64-2.235-1.119-4.149c-0.479-1.915,0-87.3,0-87.3s0.436-2.437,0.939-5.563
		c5.396-2.845,9.079-8.508,9.079-15.033c0-9.38-7.607-16.986-16.987-16.986c-9.381,0-16.986,7.605-16.986,16.986
		c0,7.228,4.518,13.397,10.881,15.851c0.216,0.994,0.349,2.106,0.308,3.31c-0.16,4.628,0,82.991,0,82.991s-0.957,8.617-3.352,10.054
		c-2.394,1.437-5.745,3.831-6.224,9.735c-0.48,5.905,1.596,13.247,2.873,14.204c1.276-1.755,3.829-11.173,3.829-11.173
		s7.821-6.063,16.119,3.354c-3.191,10.055-3.352,11.171-3.352,11.171S713.315,432.135,716.188,429.103z"/>
</g>
<g id="wrench_4">
	<path d="M736.017,292.313c-0.188-0.078-0.38-0.135-0.572-0.173c0.788-1.163,0.696-2.753-0.313-3.813
		c-0.14-0.147-0.292-0.275-0.451-0.388c1.193-0.743,1.753-2.235,1.266-3.612c-0.066-0.191-0.151-0.371-0.252-0.539
		c1.394-0.193,2.516-1.329,2.63-2.786c0.016-0.202,0.01-0.4-0.014-0.594c1.354,0.388,2.843-0.191,3.538-1.478
		c0.097-0.18,0.173-0.364,0.23-0.551c1.077,0.904,2.672,0.978,3.834,0.088c0.16-0.124,0.303-0.262,0.433-0.407
		c0.615,1.263,2.045,1.98,3.469,1.636c0.196-0.047,0.385-0.114,0.562-0.195c0.048,1.404,1.063,2.638,2.501,2.901
		c0.201,0.037,0.4,0.052,0.596,0.05c-0.529,1.3-0.106,2.838,1.103,3.666c0.166,0.114,0.34,0.208,0.519,0.285
		c-1.015,0.974-1.244,2.546-0.484,3.797c0.104,0.171,0.225,0.33,0.357,0.474c-1.321,0.478-2.175,1.821-1.989,3.271
		c0.024,0.201,0.071,0.393,0.134,0.578c-1.402-0.1-2.742,0.776-3.152,2.18c-0.057,0.194-0.092,0.39-0.111,0.584
		c-1.24-0.66-2.814-0.398-3.766,0.711c-0.133,0.154-0.243,0.318-0.339,0.488c-0.864-1.108-2.41-1.506-3.732-0.879
		c-0.185,0.087-0.354,0.19-0.511,0.306c-0.338-1.362-1.587-2.356-3.052-2.317c-0.202,0.005-0.399,0.031-0.59,0.074
		C738.105,294.286,737.37,292.871,736.017,292.313z M751.638,417.9c2.665-2.814,10.071-10.218,7.85-17.328
		c-3.998-5.626-6.959-8.143-6.959-8.143s-0.595-2.076-1.038-3.852c-0.444-1.777,0-81.009,0-81.009s0.403-2.261,0.87-5.162
		c5.008-2.641,8.425-7.895,8.425-13.949c0-8.705-7.059-15.762-15.763-15.762c-8.705,0-15.762,7.057-15.762,15.762
		c0,6.706,4.191,12.431,10.096,14.708c0.199,0.921,0.324,1.955,0.286,3.07c-0.147,4.294,0,77.01,0,77.01s-0.889,7.997-3.11,9.33
		c-2.223,1.332-5.331,3.554-5.776,9.034c-0.443,5.479,1.482,12.292,2.667,13.18c1.185-1.63,3.554-10.367,3.554-10.367
		s7.257-5.627,14.957,3.11c-2.962,9.33-3.11,10.367-3.11,10.367S748.972,420.714,751.638,417.9z"/>
</g>
<g id="wrench_3">
	<path d="M770.232,290.863c-0.173-0.072-0.352-0.124-0.528-0.159c0.728-1.072,0.642-2.539-0.288-3.517
		c-0.128-0.136-0.269-0.254-0.415-0.358c1.101-0.685,1.618-2.063,1.167-3.333c-0.063-0.176-0.141-0.341-0.232-0.497
		c1.285-0.178,2.32-1.226,2.425-2.57c0.014-0.186,0.01-0.368-0.013-0.547c1.247,0.359,2.619-0.179,3.264-1.363
		c0.089-0.165,0.159-0.335,0.214-0.507c0.991,0.833,2.464,0.901,3.534,0.081c0.149-0.113,0.28-0.241,0.4-0.376
		c0.566,1.165,1.886,1.826,3.199,1.508c0.18-0.043,0.354-0.104,0.518-0.18c0.043,1.294,0.979,2.43,2.308,2.676
		c0.185,0.034,0.368,0.048,0.549,0.046c-0.487,1.2-0.098,2.617,1.016,3.381c0.153,0.105,0.315,0.191,0.479,0.264
		c-0.935,0.897-1.152,2.35-0.447,3.502c0.096,0.158,0.209,0.303,0.33,0.436c-1.22,0.441-2.009,1.68-1.835,3.017
		c0.024,0.185,0.066,0.362,0.125,0.533c-1.294-0.092-2.524,0.718-2.908,2.011c-0.053,0.179-0.087,0.36-0.104,0.539
		c-1.143-0.609-2.591-0.366-3.473,0.656c-0.123,0.142-0.224,0.293-0.313,0.449c-0.797-1.021-2.221-1.387-3.442-0.811
		c-0.17,0.08-0.325,0.175-0.471,0.282c-0.313-1.256-1.465-2.172-2.815-2.137c-0.186,0.004-0.367,0.028-0.544,0.067
		C772.158,292.684,771.479,291.378,770.232,290.863z M784.64,406.697c2.457-2.595,9.29-9.425,7.24-15.981
		c-3.688-5.19-6.419-7.512-6.419-7.512s-0.548-1.915-0.958-3.553c-0.408-1.638,0-74.717,0-74.717s0.373-2.086,0.804-4.761
		c4.619-2.436,7.771-7.282,7.771-12.866c0-8.029-6.51-14.538-14.539-14.538c-8.028,0-14.537,6.509-14.537,14.538
		c0,6.186,3.866,11.466,9.313,13.566c0.184,0.851,0.299,1.804,0.264,2.832c-0.137,3.961,0,71.029,0,71.029s-0.82,7.376-2.869,8.606
		c-2.049,1.229-4.917,3.275-5.327,8.332c-0.41,5.054,1.366,11.337,2.459,12.156c1.093-1.503,3.278-9.563,3.278-9.563
		s6.692-5.188,13.795,2.869c-2.731,8.604-2.869,9.562-2.869,9.562S782.182,409.293,784.64,406.697z"/>
</g>
<g id="needle_nosed">
	<path d="M192.308,135.471l-2.5-11.848c-24.75-40.5-15.25-89.174-15.25-89.174s3.75-19.712-1.75-25.462s-9.5,2.769-9.5,2.769
		s2,3.01-1.75,28.76c-10,48,15.917,85.921,15.917,85.921c3.5,4.334,1.333,28.502,2.833,28.502s2,1.834,2,1.834
		c-5,6.167-0.272,9.5-0.272,9.5c-2-1-2.271,0.833-2.271,2.5c0,4,0,20,0,20l11.043,62.696h3.978l9.979-62.696c0,0,0-16,0-20
		c0-1.667,0.249-3.5-1.751-2.5c0,0,5.125-3.333,0.125-9.5c0,0,0.563-1.833,2.063-1.833s-0.636-24.166,2.864-28.5
		c0,0,25.932-37.917,15.932-85.917c-3.75-25.75-1.742-28.75-1.742-28.75s-3.996-8.5-9.496-2.75s-1.748,25.5-1.748,25.5
		s9.501,48.598-15.249,89.098l-2.488,11.848H192.308z"/>
</g>
<g id="adjustable_wrench">
	<path d="M771.731,23.896c-41.358,35.978-61.357,34.55-61.556,34.531L511.896,76.785c-0.191,0.033-14.006,2.668-12.667,17.315
		c1.339,14.655,13.19,14.594,13.31,14.592l214.526-27.034c12.026-0.738,22.781,5.314,27.462,8.431l-0.23,4.978l0.507,0.12
		c0.681,0.16,1.433,0.37,2.049,0.569c-0.017,0.001-0.034,0.002-0.052,0.002c-1.681,0.07-2.801,0.453-3.43,1.17
		c-0.392,0.449-0.567,1.019-0.51,1.646c0.067,0.741,0.441,1.33,0.482,1.395l0.105,0.15l0.183,0.074
		c0.796,0.371,1.622,0.816,2.101,1.155c-0.114,0.001-0.181-0.004-0.341-0.01c-4.546-0.15-4.596,3.651-4.597,3.688l0.177,0.285
		l2.936,2.076l0.194,2.123l0.052,0.571l8.702,0.021l8.894-4.184l3.532-3.651c29.103-1.909,38.981-6.682,42.125-10.357
		c1.253-1.464,1.356-2.652,1.304-3.229c-0.018-0.193-0.048-0.296-0.048-0.296l-0.104-0.333l-0.343-0.103
		c-0.272-0.069-27.416-6.918-31.429-8.019c-3.278-0.898-4.336-4.592-4.521-5.357l7.604-26.338l5.406-3.71l33.253,8.455l0.848-2.614
		l-0.142-0.243c-9.939-16.963-21.357-27.01-33.936-29.861C781.82,17.206,772.137,23.62,771.731,23.896z M749.688,56.492
		c-0.723,1.041-1.912,2.564-2.873,3.085c-0.719,0.388-0.784,0.896-0.76,1.166c0.071,0.782,1.092,1.374,2.016,1.753
		c-0.648,0.891-1.763,2.145-2.83,2.378c-1.007,0.22-1.025,0.895-1.007,1.095c0.071,0.773,1.261,1.617,2.448,2.273
		c-0.563,0.771-1.564,1.839-2.613,1.935c-0.932,0.085-1.208,0.729-1.16,1.255c0.044,0.487,0.376,1.075,0.781,1.631l-2.564-0.831
		l5.442-16.474L749.688,56.492z M524.753,91.843c0.448,4.91-3.182,9.269-8.091,9.717c-4.91,0.449-9.269-3.18-9.717-8.09
		c-0.449-4.91,3.18-9.268,8.09-9.717C519.944,83.305,524.304,86.933,524.753,91.843z"/>
</g>
<g id="vice_grips">
	<path d="M546.219,203.282c7.873,0.208,10.288-0.177,10.288-0.177s2.953-1.422,2.35-6.05c-0.027-0.222-0.075-0.607-0.072-0.607
		l5.432-0.708c0.13,0.656,0.272,1.526,0.324,1.919c0.315,2.424,3.379,1.858,3.379,1.858s11.489-0.673,13.153-0.852
		c1.665-0.179,2.141,1.66,2.141,1.66c3.319,2.258,18.378-0.881,18.378-0.881s35.362-3.43,41.313-4.206
		c5.951-0.775,9.948,0.217,9.948,0.217s12.037,4.652,15.623,6.37c-21.992,1.521-26.155,8.283-26.155,8.283s-0.726-0.41-4.299,0.56
		c-11.903,5.417-31.913,6.679-31.913,6.679s-21.475-2.246-24.623-3.18s-15.259,0.307-18.372,6.092
		c-1.619,6.936,3.628,5.916,4.103,5.686s3.882-1.178,12.759-0.149c8.876,1.029,34.183,0.422,34.183,0.422
		s-31.561,6.801-42.493,8.058c-10.243,2.679-6.081,7.517-6.081,7.517c18.169,2.677,63.639-5.769,63.639-5.769
		c16.812-7.738,49.414-12.995,49.414-12.995c30.742-5.349,80.227,2.83,80.227,2.83s4.032-0.021,7.841,0.828
		c14.145,4.041,15.08-2.974,15.08-2.974c3.84-9.242,27.641-25.287,36.769-27.486c30.268-8.986,32.161-22.852,32.377-25.065
		c0.215-2.214-0.997-8.949-0.997-8.949c-22.521-24.47-48.895-26.921-50.605-25.858c-1.711,1.063-2.309,0.297-2.309,0.297
		l-1.633-2.318c-68.771,8.959-55.234,14.575-97.915,22.489c-23.129,5.703-111.571,15.509-111.571,15.509s-9.401,1.828-9.929,3.802
		c-3.968,0.517-12.94,1.321-13.899,2.566c-0.266,0.345-0.204,1.876,0.018,3.865l-5.431,0.707c-0.132-0.655-0.205-0.825-0.303-1.137
		c-1.063-3.39-3.079-4.699-3.079-4.699l-9.962,0.961C543.313,178.4,538.232,189.304,546.219,203.282z M802.722,169.311l0.035-1
		l2.966-2.708l2.099-0.44l3.25-3.078l1.146-1.394l2.115,0.969l1.59-2.446l2.162,1.958l1.183-2.394l1.9,2.49l2.224-2.032l0.921,2.618
		l2.664-1.84l1.116,2.84l2.205-1.531l0.607,2.741l2.699-0.933l0.727,2.394l2.481-1.318l0.841,2.628l2.064-1.347l1.357,2.146
		l2.186-1.695l0.733,1.812l-0.558,0.819l-0.95,1.618l-2.021-2.143l-1.296,2.159l-2.517-1.497l-0.725,2.085l-2.539-1.661
		l-0.567,2.646l-2.651-1.893l-1.211,2.812l-1.975-1.153l-1.611,2.284l-1.949-2.234l-1.139,2.72l-0.521-0.181l-1.563-2.451
		l-2.305,2.042l-1.624-2.277l-1.564,1.365l-0.993-2.525l-2.503,1.156l-0.691-1.487c0,0-0.553-0.425-1.252,0.578
		c-0.699,1.003-2.759,1.106-2.759,1.106L802.722,169.311z"/>
</g>
<g id="channel_locks">
	<path d="M6.332,499.932c0,0,4.87,25.396,1.739,42.79c2.087,6.958,6.61,7.306,6.61,7.306s10.089-9.045,6.262-41.746
		c-3.827-32.702-3.479,0.348-2.087-35.833s8.001-108.542,8.001-108.542s3.131-14.959,10.785-25.048L51.21,353.47
		c0,0,11.132,13.22,12.524,27.831s-0.348,114.108-0.348,114.108s-2.087,18.785-6.61,30.267c-4.523,11.48-3.131,32.006,2.783,36.876
		c5.914,4.871,6.958-5.566,6.958-5.566s-1.392-22.265,6.262-43.486c7.653-21.221,12.356-161.372,11.48-165.596
		s-32.354-38.964-32.354-38.964s-4.175-10.089,8.35-28.527c0,0,5.567-4.175,4.175-21.917c-4.522-4.523-4.522-4.523-4.522-4.523
		l-1.74-2.087c0,0-59.141-3.826-43.834,56.359l-2.783,8.001l-5.914,166.64L6.332,499.932z M43.557,331.9l7.305-7.306l26.788,30.962
		c0,0-5.566,9.045-9.393,5.219C64.43,356.948,43.557,331.9,43.557,331.9z M33.459,277.206c0,0,2.83,0.922,2.576-2.386l1.8,0.271
		l0.401-2.155l1.808,0.131l-0.118-2.161l1.838,0.638v-2.29l1.694,0.509l0.449-2.671l1.736,0.891l0.422-2.672l1.675,0.636
		l0.901-2.036l1.404,0.254l0.513-2.163l1.402,0.891l0.385-2.671l1.152,0.636l0.775-2.29l1.55,0.127l0.628-1.526l1.313-0.127v1.527
		l-1.332,0.254l-0.358,1.908l-1.64,0.636l-0.477,1.399l-1.193,0.636v1.272l-1.341,0.509l-0.519,1.781l-1.14,0.254v1.654
		l-1.606,0.509l-0.341,1.526l-1.762,0.509l0.058,2.417l-1.656-0.254l0.252,2.036l-1.91,0.127l-0.509,2.417l-1.272-0.509
		l-0.127,2.163l-1.908-0.127l0.127,2.036l-1.272,0.509c0,0-0.764,6.234-0.891,6.743s-1.749,1.272-1.749,1.272l-5.487-6.107
		C29.711,284.139,27.479,278.478,33.459,277.206z"/>
</g>
</svg>
