<?xml version="1.0" encoding="utf-8"?>
<!-- Generator: Adobe Illustrator 15.1.0, SVG Export Plug-In . SVG Version: 6.00 Build 0)  -->
<!DOCTYPE svg PUBLIC "-//W3C//DTD SVG 1.1//EN" "http://www.w3.org/Graphics/SVG/1.1/DTD/svg11.dtd">
<svg version="1.1" xmlns="http://www.w3.org/2000/svg" xmlns:xlink="http://www.w3.org/1999/xlink" x="0px" y="0px"
	 width="855.882px" height="567.646px" viewBox="0 0 855.882 567.646" style="enable-background:new 0 0 855.882 567.646;"
	 xml:space="preserve">
<style type="text/css">
<![CDATA[
	.st0{stroke:#000000;stroke-miterlimit:10;}
]]>
</style>
<g id="setup">
</g>
<g id="wrench_15">
	<path d="M697.883,134.895c-0.146-0.06-0.291-0.103-0.438-0.132c0.604-0.89,0.531-2.107-0.24-2.919
		c-0.106-0.112-0.224-0.21-0.345-0.296c0.913-0.568,1.343-1.712,0.97-2.765c-0.052-0.146-0.118-0.283-0.193-0.412
		c1.065-0.148,1.924-1.018,2.011-2.132c0.012-0.154,0.009-0.306-0.009-0.455c1.034,0.298,2.173-0.148,2.707-1.131
		c0.073-0.136,0.132-0.278,0.177-0.42c0.823,0.691,2.044,0.748,2.934,0.066c0.123-0.094,0.232-0.2,0.332-0.312
		c0.471,0.967,1.564,1.513,2.654,1.252c0.15-0.037,0.295-0.087,0.431-0.15c0.035,1.074,0.812,2.017,1.914,2.22
		c0.153,0.028,0.306,0.04,0.455,0.039c-0.405,0.995-0.081,2.172,0.843,2.805c0.128,0.087,0.263,0.159,0.399,0.219
		c-0.776,0.746-0.959,1.952-0.373,2.906c0.081,0.132,0.175,0.252,0.275,0.363c-1.012,0.366-1.67,1.394-1.523,2.503
		c0.02,0.153,0.055,0.301,0.103,0.442c-1.073-0.077-2.093,0.596-2.412,1.668c-0.045,0.148-0.071,0.299-0.086,0.447
		c-0.949-0.506-2.155-0.307-2.882,0.543c-0.102,0.118-0.187,0.243-0.26,0.373c-0.662-0.848-1.846-1.154-2.857-0.672
		c-0.141,0.066-0.27,0.145-0.39,0.234c-0.259-1.042-1.215-1.804-2.336-1.774c-0.154,0.004-0.305,0.025-0.45,0.057
		C699.481,136.406,698.917,135.322,697.883,134.895z M709.839,231.013c2.039-2.153,7.707-7.82,6.007-13.262
		c-3.061-4.306-5.327-6.233-5.327-6.233s-0.454-1.587-0.793-2.947c-0.34-1.36,0-62,0-62s0.309-1.731,0.665-3.952
		c3.833-2.021,6.448-6.042,6.448-10.676c0-6.662-5.402-12.063-12.063-12.063c-6.663,0-12.063,5.401-12.063,12.063
		c0,5.133,3.207,9.515,7.728,11.257c0.152,0.706,0.248,1.496,0.218,2.35c-0.113,3.288,0,58.94,0,58.94s-0.68,6.12-2.38,7.14
		c-1.701,1.02-4.08,2.72-4.422,6.915c-0.339,4.194,1.135,9.407,2.041,10.087c0.906-1.247,2.721-7.934,2.721-7.934
		s5.554-4.306,11.447,2.38c-2.267,7.14-2.38,7.934-2.38,7.934S707.798,233.167,709.839,231.013z"/>
</g>
<g id="wrench_14">
	<path d="M741.73,134.016c-0.136-0.056-0.272-0.097-0.411-0.124c0.567-0.837,0.501-1.984-0.227-2.748
		c-0.101-0.105-0.21-0.198-0.324-0.279c0.86-0.535,1.266-1.612,0.913-2.604c-0.05-0.137-0.11-0.266-0.183-0.388
		c1.004-0.139,1.813-0.958,1.894-2.008c0.013-0.145,0.009-0.287-0.009-0.427c0.975,0.281,2.046-0.139,2.549-1.064
		c0.069-0.129,0.125-0.262,0.167-0.396c0.775,0.651,1.925,0.704,2.762,0.063c0.115-0.09,0.22-0.189,0.312-0.294
		c0.444,0.91,1.474,1.424,2.501,1.178c0.141-0.034,0.276-0.082,0.404-0.141c0.033,1.011,0.764,1.898,1.803,2.09
		c0.143,0.027,0.287,0.038,0.427,0.036c-0.381,0.938-0.076,2.044,0.795,2.641c0.12,0.083,0.246,0.15,0.375,0.206
		c-0.73,0.702-0.901,1.838-0.351,2.736c0.076,0.124,0.164,0.237,0.26,0.341c-0.953,0.344-1.572,1.313-1.435,2.357
		c0.019,0.144,0.052,0.283,0.097,0.416c-1.011-0.072-1.971,0.561-2.271,1.571c-0.042,0.14-0.067,0.281-0.081,0.421
		c-0.894-0.476-2.028-0.29-2.714,0.512c-0.094,0.111-0.176,0.229-0.244,0.352c-0.622-0.798-1.737-1.087-2.689-0.634
		c-0.132,0.062-0.255,0.137-0.367,0.221c-0.244-0.982-1.146-1.698-2.198-1.67c-0.147,0.003-0.288,0.022-0.426,0.053
		C743.236,135.438,742.706,134.419,741.73,134.016z M752.987,224.508c1.92-2.028,7.256-7.363,5.655-12.486
		c-2.882-4.054-5.016-5.869-5.016-5.869s-0.427-1.495-0.747-2.774c-0.319-1.281,0-58.37,0-58.37s0.292-1.63,0.627-3.721
		c3.608-1.902,6.07-5.688,6.07-10.051c0-6.272-5.084-11.357-11.357-11.357c-6.272,0-11.356,5.085-11.356,11.357
		c0,4.833,3.021,8.958,7.275,10.599c0.144,0.664,0.233,1.408,0.204,2.212c-0.106,3.094,0,55.489,0,55.489s-0.64,5.763-2.241,6.722
		c-1.599,0.96-3.84,2.561-4.161,6.51c-0.32,3.948,1.067,8.856,1.921,9.497c0.854-1.175,2.562-7.47,2.562-7.47
		s5.229-4.055,10.777,2.241c-2.135,6.723-2.241,7.47-2.241,7.47S751.065,226.535,752.987,224.508z"/>
</g>
<g id="wrench_13">
	<path d="M781.181,133.028c-0.126-0.052-0.254-0.09-0.384-0.116c0.529-0.779,0.466-1.845-0.209-2.555
		c-0.093-0.099-0.195-0.185-0.304-0.26c0.802-0.497,1.178-1.499,0.851-2.421c-0.045-0.128-0.104-0.248-0.17-0.36
		c0.934-0.129,1.687-0.891,1.761-1.868c0.011-0.134,0.008-0.267-0.007-0.397c0.905,0.261,1.901-0.13,2.371-0.991
		c0.064-0.12,0.115-0.243,0.153-0.368c0.722,0.605,1.791,0.655,2.57,0.059c0.107-0.082,0.204-0.175,0.29-0.272
		c0.412,0.846,1.371,1.327,2.323,1.096c0.133-0.032,0.259-0.076,0.377-0.131c0.032,0.941,0.713,1.766,1.677,1.944
		c0.135,0.024,0.268,0.035,0.399,0.034c-0.355,0.872-0.071,1.902,0.738,2.456c0.11,0.077,0.229,0.14,0.349,0.191
		c-0.679,0.653-0.839,1.71-0.325,2.545c0.07,0.115,0.152,0.221,0.239,0.317c-0.885,0.32-1.461,1.221-1.333,2.192
		c0.018,0.134,0.048,0.263,0.091,0.387c-0.94-0.066-1.835,0.521-2.113,1.461c-0.038,0.13-0.063,0.261-0.075,0.391
		c-0.831-0.442-1.888-0.268-2.525,0.477c-0.087,0.103-0.162,0.213-0.226,0.327c-0.58-0.742-1.616-1.011-2.502-0.588
		c-0.123,0.058-0.236,0.127-0.342,0.205c-0.227-0.913-1.063-1.579-2.045-1.554c-0.135,0.004-0.268,0.021-0.396,0.05
		C782.579,134.351,782.087,133.402,781.181,133.028z M791.649,217.196c1.787-1.886,6.749-6.848,5.261-11.613
		c-2.681-3.771-4.665-5.458-4.665-5.458s-0.396-1.389-0.694-2.58c-0.297-1.191,0-54.291,0-54.291s0.271-1.516,0.583-3.46
		c3.356-1.77,5.646-5.291,5.646-9.349c0-5.834-4.729-10.563-10.563-10.563s-10.563,4.729-10.563,10.563
		c0,4.495,2.809,8.332,6.767,9.857c0.134,0.618,0.216,1.31,0.19,2.058c-0.099,2.878,0,51.611,0,51.611s-0.597,5.359-2.085,6.253
		c-1.487,0.894-3.571,2.381-3.87,6.055c-0.298,3.672,0.993,8.238,1.786,8.833c0.794-1.092,2.383-6.948,2.383-6.948
		s4.863-3.771,10.025,2.085c-1.986,6.252-2.085,6.947-2.085,6.947S789.863,219.082,791.649,217.196z"/>
</g>
<g id="wrench_12">
</g>
<g id="wrench_11">
</g>
<g id="wrench_10">
</g>
<g id="wrench_9">
</g>
<g id="wrench_8">
</g>
<g id="Layer_17">
	<path class="st0" d="M360.541,144.014c-1.783,0-17.49-2.731-18.378,27.383c0,42.29,7.307,58.675,7.307,73.51
		c0,14.834-4.208,19.263-4.208,19.263v3.764l4.431,0.443l1.328,3.099h5.315v123.772l3,30.777h1.455l3-30.777V271.476h5.313
		l1.328-3.099l4.43-0.443v-3.764c0,0-4.207-4.429-4.207-19.263c0-14.835,7.307-31.22,7.307-73.51
		C377.075,141.283,362.326,144.014,360.541,144.014z"/>
</g>
<g id="wrench_7">
</g>
<g id="wrench_6">
</g>
<g id="wrench_5">
</g>
<g id="wrench_4">
</g>
<g id="wrench_3">
	<path d="M772.512,285.897c-0.126-0.052-0.255-0.09-0.383-0.115c0.527-0.778,0.466-1.843-0.21-2.552
		c-0.092-0.099-0.194-0.184-0.301-0.26c0.799-0.497,1.174-1.496,0.847-2.418c-0.046-0.127-0.102-0.248-0.168-0.36
		c0.933-0.129,1.684-0.89,1.759-1.865c0.011-0.134,0.008-0.267-0.009-0.396c0.904,0.26,1.9-0.129,2.367-0.989
		c0.064-0.12,0.116-0.244,0.156-0.368c0.719,0.604,1.787,0.654,2.563,0.059c0.108-0.083,0.204-0.175,0.291-0.273
		c0.411,0.845,1.368,1.325,2.321,1.094c0.13-0.031,0.257-0.076,0.375-0.13c0.031,0.939,0.711,1.764,1.675,1.941
		c0.134,0.025,0.268,0.035,0.397,0.034c-0.353,0.871-0.07,1.899,0.737,2.453c0.112,0.076,0.229,0.139,0.348,0.191
		c-0.678,0.65-0.836,1.706-0.324,2.541c0.069,0.115,0.152,0.22,0.24,0.316c-0.886,0.32-1.458,1.219-1.331,2.189
		c0.017,0.134,0.047,0.263,0.09,0.387c-0.939-0.067-1.832,0.521-2.11,1.459c-0.038,0.129-0.063,0.261-0.075,0.391
		c-0.829-0.442-1.881-0.266-2.521,0.476c-0.089,0.103-0.161,0.212-0.226,0.326c-0.578-0.741-1.612-1.006-2.498-0.588
		c-0.123,0.058-0.236,0.127-0.342,0.205c-0.227-0.912-1.063-1.577-2.042-1.55c-0.136,0.003-0.268,0.021-0.396,0.048
		C773.909,287.219,773.417,286.272,772.512,285.897z M782.966,369.944c1.782-1.882,6.74-6.838,5.253-11.596
		c-2.676-3.767-4.657-5.45-4.657-5.45s-0.397-1.39-0.695-2.578c-0.296-1.188,0-54.213,0-54.213s0.271-1.513,0.583-3.454
		c3.352-1.768,5.639-5.284,5.639-9.336c0-5.825-4.724-10.548-10.55-10.548c-5.825,0-10.548,4.723-10.548,10.548
		c0,4.488,2.806,8.32,6.758,9.844c0.133,0.617,0.217,1.309,0.19,2.055c-0.099,2.874,0,51.537,0,51.537s-0.595,5.352-2.082,6.245
		c-1.485,0.892-3.566,2.376-3.865,6.045c-0.297,3.667,0.991,8.227,1.784,8.82c0.793-1.09,2.379-6.938,2.379-6.938
		s4.856-3.765,10.01,2.081c-1.982,6.243-2.082,6.938-2.082,6.938S781.182,371.828,782.966,369.944z"/>
	<path d="M695.577,283.576c-0.103-0.043-0.209-0.074-0.314-0.095c0.434-0.641,0.383-1.517-0.173-2.101
		c-0.075-0.081-0.16-0.151-0.248-0.213c0.657-0.409,0.967-1.232,0.697-1.991c-0.037-0.105-0.084-0.204-0.139-0.296
		c0.768-0.106,1.386-0.732,1.448-1.535c0.009-0.111,0.006-0.22-0.007-0.326c0.744,0.214,1.563-0.107,1.948-0.814
		c0.053-0.099,0.096-0.2,0.128-0.303c0.592,0.498,1.472,0.539,2.111,0.048c0.089-0.068,0.167-0.144,0.239-0.225
		c0.338,0.695,1.126,1.09,1.91,0.9c0.107-0.025,0.212-0.062,0.309-0.107c0.026,0.773,0.586,1.452,1.379,1.598
		c0.11,0.021,0.221,0.029,0.327,0.028c-0.29,0.717-0.058,1.563,0.606,2.02c0.093,0.063,0.189,0.114,0.287,0.157
		c-0.559,0.536-0.688,1.404-0.268,2.092c0.058,0.094,0.126,0.181,0.197,0.26c-0.729,0.264-1.199,1.003-1.095,1.802
		c0.014,0.11,0.039,0.216,0.074,0.318c-0.773-0.055-1.509,0.429-1.737,1.202c-0.031,0.106-0.052,0.215-0.063,0.321
		c-0.682-0.364-1.548-0.219-2.074,0.392c-0.073,0.085-0.133,0.175-0.187,0.268c-0.476-0.61-1.326-0.828-2.056-0.484
		c-0.102,0.048-0.194,0.104-0.281,0.168c-0.187-0.75-0.875-1.298-1.682-1.276c-0.11,0.002-0.22,0.017-0.325,0.04
		C696.728,284.664,696.322,283.884,695.577,283.576z M704.183,352.76c1.468-1.55,5.549-5.629,4.324-9.545
		c-2.202-3.101-3.834-4.486-3.834-4.486s-0.326-1.145-0.571-2.123c-0.244-0.978,0-44.625,0-44.625s0.222-1.246,0.479-2.844
		c2.759-1.455,4.642-4.349,4.642-7.685c0-4.795-3.889-8.683-8.685-8.683c-4.795,0-8.683,3.887-8.683,8.683
		c0,3.694,2.31,6.849,5.563,8.103c0.109,0.508,0.179,1.077,0.157,1.691c-0.081,2.366,0,42.423,0,42.423s-0.489,4.406-1.714,5.141
		c-1.223,0.734-2.936,1.956-3.182,4.977c-0.244,3.019,0.816,6.771,1.469,7.261c0.653-0.897,1.958-5.711,1.958-5.711
		s3.997-3.1,8.24,1.713c-1.632,5.139-1.714,5.711-1.714,5.711S702.715,354.31,704.183,352.76z"/>
	<path d="M737.044,284.737c-0.113-0.048-0.231-0.083-0.348-0.105c0.479-0.709,0.424-1.68-0.191-2.327
		c-0.084-0.089-0.178-0.167-0.275-0.236c0.729-0.453,1.071-1.364,0.772-2.205c-0.041-0.117-0.093-0.226-0.153-0.329
		c0.85-0.118,1.534-0.811,1.604-1.7c0.01-0.123,0.007-0.244-0.008-0.361c0.824,0.237,1.731-0.119,2.158-0.902
		c0.058-0.109,0.105-0.222,0.142-0.335c0.655,0.551,1.63,0.597,2.338,0.054c0.099-0.075,0.185-0.16,0.265-0.249
		c0.374,0.77,1.247,1.208,2.115,0.997c0.119-0.028,0.235-0.068,0.342-0.118c0.029,0.856,0.649,1.607,1.527,1.769
		c0.122,0.023,0.244,0.033,0.362,0.031c-0.321,0.794-0.063,1.731,0.672,2.237c0.103,0.069,0.21,0.126,0.317,0.174
		c-0.618,0.593-0.762,1.555-0.296,2.317c0.063,0.104,0.14,0.2,0.218,0.288c-0.807,0.292-1.327,1.111-1.212,1.996
		c0.016,0.123,0.043,0.24,0.082,0.353c-0.856-0.061-1.671,0.476-1.924,1.331c-0.034,0.118-0.058,0.238-0.069,0.355
		c-0.755-0.403-1.714-0.242-2.297,0.434c-0.081,0.094-0.146,0.194-0.206,0.297c-0.527-0.676-1.469-0.917-2.277-0.536
		c-0.112,0.053-0.215,0.116-0.312,0.187c-0.206-0.831-0.969-1.437-1.861-1.413c-0.123,0.002-0.244,0.019-0.36,0.044
		C738.318,285.941,737.869,285.078,737.044,284.737z M746.574,361.353c1.625-1.716,6.145-6.233,4.788-10.57
		c-2.438-3.434-4.245-4.968-4.245-4.968s-0.361-1.268-0.633-2.352c-0.271-1.082,0-49.418,0-49.418s0.245-1.38,0.531-3.149
		c3.055-1.611,5.14-4.816,5.14-8.51c0-5.311-4.307-9.615-9.617-9.615s-9.615,4.305-9.615,9.615c0,4.091,2.558,7.584,6.16,8.973
		c0.121,0.563,0.197,1.193,0.174,1.873c-0.09,2.62,0,46.98,0,46.98s-0.542,4.88-1.898,5.693c-1.354,0.813-3.25,2.166-3.523,5.511
		c-0.27,3.343,0.904,7.499,1.627,8.041c0.724-0.994,2.168-6.324,2.168-6.324s4.427-3.433,9.126,1.896
		c-1.808,5.69-1.898,6.324-1.898,6.324S744.948,363.069,746.574,361.353z"/>
	<path d="M759.955,415.04c-0.098-0.041-0.199-0.07-0.299-0.09c0.412-0.609,0.364-1.442-0.164-1.997
		c-0.072-0.077-0.152-0.144-0.235-0.203c0.625-0.389,0.918-1.17,0.662-1.892c-0.036-0.1-0.079-0.194-0.132-0.282
		c0.729-0.101,1.317-0.695,1.376-1.458c0.009-0.105,0.007-0.209-0.007-0.311c0.708,0.204,1.487-0.102,1.853-0.773
		c0.05-0.094,0.091-0.19,0.122-0.288c0.563,0.473,1.397,0.512,2.005,0.046c0.085-0.064,0.16-0.137,0.229-0.214
		c0.321,0.661,1.07,1.036,1.815,0.856c0.102-0.023,0.201-0.059,0.294-0.102c0.024,0.734,0.556,1.38,1.31,1.519
		c0.104,0.02,0.21,0.027,0.312,0.026c-0.276,0.681-0.056,1.485,0.576,1.919c0.088,0.06,0.179,0.108,0.272,0.149
		c-0.53,0.509-0.654,1.334-0.254,1.988c0.055,0.09,0.119,0.173,0.188,0.247c-0.693,0.251-1.141,0.954-1.042,1.713
		c0.014,0.105,0.037,0.206,0.07,0.303c-0.734-0.052-1.433,0.408-1.65,1.142c-0.03,0.101-0.049,0.205-0.06,0.306
		c-0.648-0.346-1.471-0.208-1.972,0.373c-0.069,0.08-0.126,0.165-0.177,0.254c-0.452-0.58-1.261-0.787-1.954-0.46
		c-0.096,0.045-0.185,0.1-0.268,0.16c-0.177-0.713-0.831-1.233-1.597-1.213c-0.106,0.003-0.21,0.017-0.31,0.037
		C761.049,416.073,760.664,415.333,759.955,415.04z M768.134,480.793c1.395-1.473,5.273-5.35,4.109-9.072
		c-2.093-2.946-3.643-4.264-3.643-4.264s-0.312-1.087-0.544-2.017c-0.231-0.931,0-42.413,0-42.413s0.211-1.184,0.456-2.702
		c2.622-1.383,4.411-4.134,4.411-7.304c0-4.558-3.695-8.252-8.254-8.252c-4.557,0-8.252,3.694-8.252,8.252
		c0,3.512,2.195,6.509,5.287,7.701c0.104,0.482,0.17,1.023,0.149,1.607c-0.077,2.248,0,40.319,0,40.319s-0.466,4.187-1.629,4.886
		c-1.162,0.697-2.79,1.858-3.024,4.729c-0.232,2.869,0.775,6.437,1.396,6.9c0.621-0.853,1.861-5.427,1.861-5.427
		s3.8-2.945,7.831,1.628c-1.551,4.884-1.629,5.428-1.629,5.428S766.738,482.267,768.134,480.793z"/>
	<path d="M687.767,408.224c-0.08-0.033-0.163-0.058-0.245-0.074c0.339-0.502,0.299-1.187-0.136-1.643
		c-0.059-0.064-0.125-0.119-0.194-0.168c0.515-0.32,0.757-0.963,0.546-1.558c-0.029-0.082-0.065-0.159-0.108-0.231
		c0.601-0.083,1.084-0.573,1.133-1.201c0.007-0.086,0.005-0.172-0.005-0.255c0.582,0.167,1.223-0.083,1.523-0.638
		c0.042-0.077,0.075-0.156,0.101-0.236c0.463,0.389,1.151,0.421,1.651,0.037c0.069-0.053,0.131-0.112,0.188-0.176
		c0.265,0.544,0.881,0.854,1.494,0.705c0.084-0.021,0.166-0.049,0.241-0.084c0.021,0.604,0.459,1.137,1.079,1.25
		c0.086,0.017,0.173,0.023,0.256,0.022c-0.227,0.561-0.045,1.223,0.475,1.58c0.072,0.049,0.148,0.089,0.225,0.122
		c-0.438,0.419-0.539,1.099-0.209,1.637c0.045,0.074,0.098,0.142,0.154,0.204c-0.57,0.206-0.938,0.784-0.856,1.409
		c0.011,0.087,0.03,0.17,0.058,0.249c-0.605-0.043-1.181,0.336-1.359,0.94c-0.024,0.083-0.04,0.168-0.049,0.251
		c-0.533-0.283-1.211-0.171-1.622,0.307c-0.058,0.066-0.104,0.137-0.146,0.21c-0.372-0.478-1.037-0.647-1.608-0.379
		c-0.079,0.038-0.151,0.082-0.22,0.132c-0.146-0.587-0.685-1.015-1.315-0.998c-0.087,0.002-0.172,0.013-0.255,0.03
		C688.667,409.075,688.35,408.465,687.767,408.224z M694.499,462.349c1.148-1.213,4.342-4.403,3.384-7.468
		c-1.724-2.426-3-3.51-3-3.51s-0.255-0.896-0.447-1.66c-0.19-0.766,0-34.912,0-34.912s0.174-0.975,0.376-2.225
		c2.158-1.139,3.631-3.403,3.631-6.012c0-3.752-3.042-6.793-6.794-6.793c-3.751,0-6.793,3.041-6.793,6.793
		c0,2.89,1.807,5.357,4.352,6.339c0.086,0.397,0.14,0.843,0.123,1.323c-0.063,1.851,0,33.188,0,33.188s-0.383,3.447-1.341,4.021
		c-0.956,0.575-2.297,1.53-2.489,3.894c-0.19,2.361,0.639,5.298,1.149,5.681c0.511-0.702,1.531-4.468,1.531-4.468
		s3.128-2.426,6.447,1.34c-1.276,4.02-1.341,4.468-1.341,4.468S693.352,463.561,694.499,462.349z"/>
	<path d="M718.208,414.132c-0.089-0.037-0.182-0.064-0.272-0.082c0.376-0.556,0.332-1.314-0.149-1.82
		c-0.065-0.069-0.139-0.131-0.216-0.185c0.57-0.354,0.839-1.067,0.604-1.725c-0.032-0.091-0.072-0.177-0.12-0.257
		c0.665-0.093,1.2-0.635,1.255-1.33c0.008-0.097,0.006-0.19-0.006-0.283c0.645,0.186,1.354-0.092,1.688-0.705
		c0.045-0.085,0.082-0.173,0.11-0.262c0.513,0.431,1.275,0.466,1.829,0.041c0.077-0.058,0.145-0.124,0.207-0.194
		c0.293,0.603,0.976,0.944,1.655,0.779c0.093-0.021,0.184-0.053,0.267-0.092c0.023,0.67,0.509,1.258,1.195,1.384
		c0.096,0.018,0.191,0.025,0.283,0.024c-0.251,0.621-0.05,1.354,0.526,1.75c0.08,0.054,0.164,0.099,0.248,0.136
		c-0.484,0.464-0.596,1.217-0.231,1.813c0.05,0.08,0.109,0.155,0.17,0.225c-0.631,0.229-1.038,0.869-0.948,1.562
		c0.013,0.096,0.034,0.188,0.064,0.275c-0.67-0.048-1.308,0.372-1.505,1.041c-0.027,0.092-0.045,0.187-0.055,0.278
		c-0.591-0.314-1.341-0.189-1.797,0.34c-0.063,0.073-0.114,0.151-0.161,0.231c-0.412-0.528-1.148-0.716-1.781-0.418
		c-0.088,0.041-0.168,0.09-0.244,0.145c-0.161-0.649-0.758-1.124-1.456-1.104c-0.097,0.002-0.191,0.014-0.282,0.033
		C719.205,415.074,718.854,414.399,718.208,414.132z M725.664,474.071c1.271-1.343,4.807-4.877,3.745-8.27
		c-1.907-2.687-3.32-3.887-3.32-3.887s-0.283-0.992-0.495-1.84c-0.212-0.847,0-38.661,0-38.661s0.191-1.08,0.415-2.465
		c2.39-1.26,4.021-3.768,4.021-6.657c0-4.155-3.369-7.522-7.524-7.522c-4.154,0-7.522,3.367-7.522,7.522
		c0,3.201,2.001,5.933,4.819,7.02c0.095,0.44,0.154,0.934,0.137,1.465c-0.07,2.05,0,36.755,0,36.755s-0.425,3.817-1.485,4.454
		c-1.059,0.636-2.543,1.694-2.757,4.312c-0.211,2.615,0.708,5.866,1.272,6.29c0.566-0.777,1.696-4.947,1.696-4.947
		s3.464-2.686,7.14,1.483c-1.414,4.452-1.485,4.948-1.485,4.948S724.392,475.414,725.664,474.071z"/>
	<path class="st0" d="M619.353,388.147c0,0-8.533-3.327-23.204-0.053c-14.67,3.274-29.884,12.128-29.884,29.681v26.023
		c0,0-2.158,10.002,11.596,10.002c1.702-1.834,9.32-1.83,9.32-1.83h58.262l0.822,1.825v-15.257l-0.665-0.246l-2.227-3.322h-1.218
		l-0.354-3.141l-6.114-4.604c0,0,2.577-13.249-7.423-29.884c0-3.406,0-6.146,0-6.146s-0.176-2.105-3.058-2.105
		S619.353,388.147,619.353,388.147z"/>
</g>
<g id="Layer_15">
	<path class="st0" d="M171.035,165.153c-1.408,0-13.812-2.157-14.512,21.623c0,33.395,5.77,46.333,5.77,58.048
		c0,11.714-3.322,15.211-3.322,15.211v2.973l3.497,0.35l1.05,2.447h4.196v97.737l-1.574,12.24l1.399,12.063h6.236l1.398-12.063
		l-1.573-12.24v-97.737h4.196l1.049-2.447l3.497-0.35v-2.973c0,0-3.322-3.497-3.322-15.211c0-11.715,5.771-24.653,5.771-58.048
		C184.091,162.997,172.444,165.153,171.035,165.153z"/>
</g>
<g id="Layer_16">
	<path class="st0" d="M218.135,159.167c-1.783,0-17.489-2.731-18.377,27.383c0,42.29,7.307,58.675,7.307,73.51
		c0,14.834-4.208,19.263-4.208,19.263v3.764l4.43,0.443l1.328,3.099h5.315v123.772l-1.994,15.501l1.771,15.275h7.897l1.771-15.275
		l-1.991-15.501V286.629h5.313l1.328-3.099l4.43-0.443v-3.764c0,0-4.208-4.429-4.208-19.263c0-14.835,7.307-31.22,7.307-73.51
		C234.67,156.436,219.921,159.167,218.135,159.167z"/>
</g>
</svg>
